<svg width="24" height="24" viewBox="0 0 24 24" fill="none" xmlns="http://www.w3.org/2000/svg">
<path d="M3.09773 16.7344C2.95296 16.7344 2.81126 16.6926 2.68974 16.6139C2.56822 16.5352 2.47207 16.4231 2.41289 16.2909C1.69686 14.6918 1.39239 12.9389 1.52724 11.1919C1.66208 9.44498 2.23195 7.75956 3.1849 6.28923C4.13786 4.8189 5.44362 3.61042 6.98318 2.77392C8.52274 1.93741 10.2472 1.49947 11.9993 1.5C12.1982 1.5 12.389 1.57902 12.5296 1.71967C12.6703 1.86032 12.7493 2.05109 12.7493 2.25V12C12.7493 12.1448 12.7074 12.2866 12.6286 12.4081C12.5499 12.5296 12.4376 12.6257 12.3054 12.6848L3.40383 16.6669C3.30772 16.7108 3.20339 16.7338 3.09773 16.7344Z" fill="#181818"/>
<path d="M14.6988 3.19594C14.6444 3.18491 14.5883 3.18609 14.5344 3.19938C14.4806 3.21268 14.4303 3.23777 14.3873 3.27283C14.3443 3.3079 14.3096 3.35207 14.2858 3.40216C14.2619 3.45225 14.2494 3.50701 14.2493 3.5625V12C14.2489 12.4343 14.1231 12.8591 13.8869 13.2236C13.6507 13.588 13.3143 13.8764 12.918 14.0541L4.83351 17.6719C4.7834 17.6942 4.73881 17.7273 4.70289 17.7688C4.66697 17.8103 4.64059 17.8592 4.62561 17.912C4.61064 17.9648 4.60743 18.0202 4.61622 18.0744C4.62501 18.1285 4.64558 18.1801 4.67648 18.2255C5.29519 19.1354 6.06319 19.9343 6.94805 20.5884C8.62452 21.8356 10.6598 22.5062 12.7493 22.5C18.1254 22.5 22.4993 18.1261 22.4993 12.75C22.4993 8.04141 19.144 4.10156 14.6988 3.19594Z" fill="#181818"/>
</svg>
