<svg width="24" height="24" viewBox="0 0 24 24" fill="none" xmlns="http://www.w3.org/2000/svg">
<path d="M13.5 21.7495H10.5C10.3011 21.7495 10.1103 21.8286 9.96969 21.9692C9.82904 22.1099 9.75002 22.3006 9.75002 22.4995C9.75002 22.6984 9.82904 22.8892 9.96969 23.0299C10.1103 23.1705 10.3011 23.2495 10.5 23.2495H13.5C13.6989 23.2495 13.8897 23.1705 14.0304 23.0299C14.171 22.8892 14.25 22.6984 14.25 22.4995C14.25 22.3006 14.171 22.1099 14.0304 21.9692C13.8897 21.8286 13.6989 21.7495 13.5 21.7495Z" fill="#FCFCFC"/>
<path d="M14.25 19.4995H9.75002C9.55111 19.4995 9.36034 19.5786 9.21969 19.7192C9.07904 19.8599 9.00002 20.0506 9.00002 20.2495C9.00002 20.4484 9.07904 20.6392 9.21969 20.7799C9.36034 20.9205 9.55111 20.9995 9.75002 20.9995H14.25C14.4489 20.9995 14.6397 20.9205 14.7804 20.7799C14.921 20.6392 15 20.4484 15 20.2495C15 20.0506 14.921 19.8599 14.7804 19.7192C14.6397 19.5786 14.4489 19.4995 14.25 19.4995Z" fill="#FCFCFC"/>
<path d="M17.3166 2.93813C15.9071 1.52672 14.0189 0.749533 12 0.749533C11.0144 0.747184 10.0381 0.939574 9.12712 1.31565C8.21612 1.69173 7.38839 2.24409 6.69148 2.94099C5.99457 3.6379 5.44222 4.46563 5.06614 5.37663C4.69006 6.28763 4.49767 7.26396 4.50002 8.24953C4.50002 10.4348 5.33768 12.4791 6.7969 13.8577L7.00127 14.0494C7.84549 14.8388 9.00002 15.9202 9.00002 16.8745V17.9995C9.00002 18.1984 9.07904 18.3892 9.21969 18.5299C9.36034 18.6705 9.55111 18.7495 9.75002 18.7495H10.875C10.9745 18.7495 11.0699 18.71 11.1402 18.6397C11.2105 18.5694 11.25 18.474 11.25 18.3745V12.8817C11.25 12.8059 11.2271 12.7318 11.1841 12.6693C11.1412 12.6068 11.0803 12.5588 11.0096 12.5316C10.5765 12.3549 10.165 12.1292 9.7833 11.8589C9.69752 11.8041 9.62378 11.7325 9.56658 11.6483C9.50938 11.5641 9.46992 11.4691 9.4506 11.3692C9.43127 11.2693 9.43249 11.1664 9.45418 11.067C9.47587 10.9675 9.51757 10.8735 9.57675 10.7907C9.63593 10.7079 9.71135 10.638 9.79841 10.5853C9.88547 10.5326 9.98235 10.4981 10.0832 10.484C10.184 10.4699 10.2866 10.4765 10.3848 10.5034C10.4829 10.5302 10.5746 10.5767 10.6542 10.6402C11.0011 10.8858 11.6691 11.2495 12 11.2495C12.331 11.2495 12.9989 10.8848 13.3467 10.6402C13.5087 10.5383 13.7034 10.5023 13.8911 10.5393C14.0788 10.5763 14.2452 10.6837 14.3563 10.8394C14.4675 10.995 14.5149 11.1873 14.489 11.3769C14.463 11.5664 14.3656 11.7388 14.2167 11.8589C13.8349 12.1287 13.4235 12.3539 12.9905 12.5302C12.9197 12.5574 12.8588 12.6054 12.8159 12.6679C12.773 12.7304 12.75 12.8045 12.75 12.8803V18.3745C12.75 18.474 12.7895 18.5694 12.8599 18.6397C12.9302 18.71 13.0256 18.7495 13.125 18.7495H14.25C14.4489 18.7495 14.6397 18.6705 14.7804 18.5299C14.921 18.3892 15 18.1984 15 17.9995V16.8745C15 15.9427 16.1419 14.8622 16.9758 14.0728L17.206 13.8544C18.7069 12.4214 19.5 10.4813 19.5 8.24953C19.505 7.26387 19.3146 6.28699 18.9398 5.37533C18.5651 4.46368 18.0133 3.63532 17.3166 2.93813Z" fill="#FCFCFC"/>
</svg>
