<svg width="24" height="24" viewBox="0 0 24 24" fill="none" xmlns="http://www.w3.org/2000/svg">
<path d="M13.5 21.7496H10.5C10.3011 21.7496 10.1103 21.8286 9.96969 21.9693C9.82904 22.1099 9.75002 22.3007 9.75002 22.4996C9.75002 22.6985 9.82904 22.8893 9.96969 23.0299C10.1103 23.1706 10.3011 23.2496 10.5 23.2496H13.5C13.6989 23.2496 13.8897 23.1706 14.0304 23.0299C14.171 22.8893 14.25 22.6985 14.25 22.4996C14.25 22.3007 14.171 22.1099 14.0304 21.9693C13.8897 21.8286 13.6989 21.7496 13.5 21.7496Z" fill="#AFAFAF"/>
<path d="M14.25 19.4996H9.75002C9.55111 19.4996 9.36034 19.5786 9.21969 19.7193C9.07904 19.8599 9.00002 20.0507 9.00002 20.2496C9.00002 20.4485 9.07904 20.6393 9.21969 20.7799C9.36034 20.9206 9.55111 20.9996 9.75002 20.9996H14.25C14.4489 20.9996 14.6397 20.9206 14.7804 20.7799C14.921 20.6393 15 20.4485 15 20.2496C15 20.0507 14.921 19.8599 14.7804 19.7193C14.6397 19.5786 14.4489 19.4996 14.25 19.4996Z" fill="#AFAFAF"/>
<path d="M17.3166 2.93819C15.9071 1.52678 14.0189 0.749594 12 0.749594C11.0144 0.747245 10.0381 0.939635 9.12712 1.31571C8.21612 1.69179 7.38839 2.24415 6.69148 2.94106C5.99457 3.63796 5.44222 4.46569 5.06614 5.37669C4.69006 6.28769 4.49767 7.26402 4.50002 8.24959C4.50002 10.4349 5.33768 12.4791 6.7969 13.8577L7.00127 14.0494C7.84549 14.8388 9.00002 15.9202 9.00002 16.8746V17.9996C9.00002 18.1985 9.07904 18.3893 9.21969 18.5299C9.36034 18.6706 9.55111 18.7496 9.75002 18.7496H10.875C10.9745 18.7496 11.0699 18.7101 11.1402 18.6398C11.2105 18.5694 11.25 18.4741 11.25 18.3746V12.8818C11.25 12.8059 11.2271 12.7319 11.1841 12.6694C11.1412 12.6069 11.0803 12.5588 11.0096 12.5316C10.5765 12.3549 10.165 12.1293 9.7833 11.859C9.69752 11.8042 9.62378 11.7325 9.56658 11.6483C9.50938 11.5641 9.46992 11.4692 9.4506 11.3692C9.43127 11.2693 9.43249 11.1665 9.45418 11.067C9.47587 10.9676 9.51757 10.8736 9.57675 10.7908C9.63593 10.708 9.71135 10.6381 9.79841 10.5854C9.88547 10.5326 9.98235 10.4982 10.0832 10.4841C10.184 10.47 10.2866 10.4766 10.3848 10.5034C10.4829 10.5303 10.5746 10.5768 10.6542 10.6402C11.0011 10.8858 11.6691 11.2496 12 11.2496C12.331 11.2496 12.9989 10.8849 13.3467 10.6402C13.5087 10.5384 13.7034 10.5023 13.8911 10.5394C14.0788 10.5764 14.2452 10.6837 14.3563 10.8394C14.4675 10.9951 14.5149 11.1874 14.489 11.3769C14.463 11.5664 14.3656 11.7389 14.2167 11.859C13.8349 12.1288 13.4235 12.354 12.9905 12.5302C12.9197 12.5574 12.8588 12.6055 12.8159 12.668C12.773 12.7305 12.75 12.8045 12.75 12.8804V18.3746C12.75 18.4741 12.7895 18.5694 12.8599 18.6398C12.9302 18.7101 13.0256 18.7496 13.125 18.7496H14.25C14.4489 18.7496 14.6397 18.6706 14.7804 18.5299C14.921 18.3893 15 18.1985 15 17.9996V16.8746C15 15.9427 16.1419 14.8623 16.9758 14.0729L17.206 13.8544C18.7069 12.4215 19.5 10.4813 19.5 8.24959C19.505 7.26393 19.3146 6.28705 18.9398 5.37539C18.5651 4.46374 18.0133 3.63538 17.3166 2.93819Z" fill="#AFAFAF"/>
</svg>
