<svg width="24" height="24" viewBox="0 0 24 24" fill="none" xmlns="http://www.w3.org/2000/svg">
<path d="M7.20016 5.17781C7.29871 5.0803 7.37598 4.96342 7.4271 4.83455C7.47823 4.70568 7.5021 4.56762 7.49721 4.42907C7.49232 4.29052 7.45878 4.15448 7.3987 4.02954C7.33862 3.90459 7.2533 3.79345 7.14813 3.70312C6.61886 3.25143 5.94644 3.00226 5.25063 3L5.09735 3.00422H5.07485C3.48813 3.10078 2.25063 4.47891 2.25391 6.14062C2.25391 7.03125 2.62891 7.50281 2.92516 7.88016C3.00829 7.98565 3.11251 8.07265 3.23115 8.13561C3.3498 8.19856 3.48026 8.23608 3.61423 8.24578C3.62641 8.24578 3.64704 8.24813 3.70798 8.24813C3.82847 8.24795 3.94769 8.2234 4.05846 8.17595C4.16922 8.1285 4.26924 8.05914 4.35251 7.97203L7.20016 5.17781Z" fill="#00C056"/>
<path d="M18.9283 3.00516L18.775 3.00047H18.7506C18.0542 3.00228 17.381 3.25148 16.8513 3.70359C16.7462 3.79392 16.661 3.905 16.6011 4.02986C16.5411 4.15472 16.5076 4.29065 16.5027 4.42908C16.4978 4.56752 16.5216 4.70546 16.5727 4.83424C16.6237 4.96302 16.7008 5.07984 16.7992 5.17734L19.6478 7.97344C19.7313 8.06086 19.8316 8.13044 19.9427 8.17798C20.0538 8.22551 20.1734 8.25002 20.2942 8.25C20.3542 8.25 20.3748 8.25 20.388 8.24766C20.5219 8.2379 20.6522 8.20034 20.7708 8.13739C20.8894 8.07444 20.9935 7.98747 21.0766 7.88203C21.3747 7.50469 21.7459 7.03453 21.7478 6.1425C21.7506 4.47891 20.5131 3.10078 18.9283 3.00516Z" fill="#00C056"/>
<path d="M12.0039 4.5C7.45704 4.5 3.75391 8.20078 3.75391 12.75C3.7523 14.6788 4.42951 16.5467 5.66688 18.0262L3.97376 19.7198C3.90246 19.7891 3.84564 19.8719 3.80661 19.9633C3.76758 20.0547 3.74712 20.153 3.74642 20.2524C3.74571 20.3518 3.76478 20.4504 3.80251 20.5424C3.84024 20.6344 3.89587 20.7179 3.96619 20.7882C4.0365 20.8585 4.12008 20.9141 4.21207 20.9518C4.30407 20.9895 4.40263 21.0085 4.50204 21.0077C4.60146 21.007 4.69973 20.9865 4.79114 20.9474C4.88256 20.9083 4.96529 20.8515 5.03454 20.7802L6.72766 19.087C8.20806 20.323 10.0754 21 12.0039 21C13.9324 21 15.7998 20.323 17.2802 19.087L18.9738 20.7802C19.043 20.8515 19.1257 20.9083 19.2172 20.9474C19.3086 20.9865 19.4068 21.007 19.5062 21.0077C19.6057 21.0085 19.7042 20.9895 19.7962 20.9518C19.8882 20.9141 19.9718 20.8585 20.0421 20.7882C20.1124 20.7179 20.1681 20.6344 20.2058 20.5424C20.2435 20.4504 20.2626 20.3518 20.2619 20.2524C20.2612 20.153 20.2407 20.0547 20.2017 19.9633C20.1627 19.8719 20.1058 19.7891 20.0345 19.7198L18.3409 18.0262C19.5785 16.5468 20.2558 14.6788 20.2539 12.75C20.2539 8.20312 16.5531 4.5 12.0039 4.5ZM12.7539 12.75C12.7539 12.9489 12.6749 13.1397 12.5342 13.2803C12.3936 13.421 12.2028 13.5 12.0039 13.5H8.25391C8.055 13.5 7.86423 13.421 7.72358 13.2803C7.58293 13.1397 7.50391 12.9489 7.50391 12.75C7.50391 12.5511 7.58293 12.3603 7.72358 12.2197C7.86423 12.079 8.055 12 8.25391 12H11.2539V7.5C11.2539 7.30109 11.3329 7.11032 11.4736 6.96967C11.6142 6.82902 11.805 6.75 12.0039 6.75C12.2028 6.75 12.3936 6.82902 12.5342 6.96967C12.6749 7.11032 12.7539 7.30109 12.7539 7.5V12.75Z" fill="#00C056"/>
</svg>
