<svg width="24" height="24" viewBox="0 0 24 24" fill="none" xmlns="http://www.w3.org/2000/svg">
<path d="M22.4841 12.5953L20.9841 5.47922C20.6944 3.92672 19.5788 3 18 3H6C5.2125 3 4.54688 3.21984 4.02657 3.65344C3.50625 4.08703 3.16547 4.69922 3.015 5.47641L1.515 12.5953C1.50487 12.6462 1.49984 12.6981 1.5 12.75V18C1.5 18.7956 1.81607 19.5587 2.37868 20.1213C2.94129 20.6839 3.70435 21 4.5 21H19.5C20.2957 21 21.0587 20.6839 21.6213 20.1213C22.1839 19.5587 22.5 18.7956 22.5 18V12.75C22.4999 12.698 22.4945 12.6462 22.4841 12.5953ZM4.48407 5.77969C4.48407 5.775 4.48407 5.77078 4.48407 5.76656C4.65047 4.90266 5.13141 4.50094 5.99766 4.50094H18C18.8723 4.50094 19.3533 4.90172 19.5127 5.76234C19.5127 5.76844 19.515 5.77453 19.5159 5.78062L20.7783 11.775C20.784 11.8023 20.7836 11.8306 20.777 11.8577C20.7704 11.8848 20.7578 11.9101 20.7402 11.9317C20.7226 11.9534 20.7004 11.9708 20.6752 11.9828C20.65 11.9948 20.6224 12.001 20.5945 12.0009H15C14.8022 11.9999 14.6122 12.0775 14.4716 12.2165C14.3309 12.3556 14.2512 12.5447 14.25 12.7425C14.25 13.3392 14.013 13.9115 13.591 14.3335C13.169 14.7554 12.5967 14.9925 12 14.9925C11.4033 14.9925 10.831 14.7554 10.409 14.3335C9.98706 13.9115 9.75 13.3392 9.75 12.7425C9.74951 12.6445 9.72972 12.5476 9.69177 12.4572C9.65381 12.3669 9.59843 12.2849 9.52878 12.2159C9.45914 12.147 9.3766 12.0924 9.28587 12.0554C9.19514 12.0183 9.098 11.9995 9 12H3.40547C3.37757 12 3.35001 11.9938 3.3248 11.9819C3.2996 11.9699 3.27738 11.9525 3.25977 11.9308C3.24217 11.9092 3.22962 11.8839 3.22303 11.8567C3.21645 11.8296 3.216 11.8014 3.22172 11.7741L4.48407 5.77969Z" fill="#181818"/>
<path d="M17.25 7.5H6.75C6.55109 7.5 6.36033 7.42098 6.21967 7.28033C6.07902 7.13968 6 6.94891 6 6.75C6 6.55109 6.07902 6.36032 6.21967 6.21967C6.36033 6.07902 6.55109 6 6.75 6H17.25C17.4489 6 17.6397 6.07902 17.7803 6.21967C17.921 6.36032 18 6.55109 18 6.75C18 6.94891 17.921 7.13968 17.7803 7.28033C17.6397 7.42098 17.4489 7.5 17.25 7.5Z" fill="#181818"/>
<path d="M18 10.5H6C5.80109 10.5 5.61033 10.421 5.46967 10.2803C5.32902 10.1397 5.25 9.94891 5.25 9.75C5.25 9.55109 5.32902 9.36032 5.46967 9.21967C5.61033 9.07902 5.80109 9 6 9H18C18.1989 9 18.3897 9.07902 18.5303 9.21967C18.671 9.36032 18.75 9.55109 18.75 9.75C18.75 9.94891 18.671 10.1397 18.5303 10.2803C18.3897 10.421 18.1989 10.5 18 10.5Z" fill="#181818"/>
</svg>
