<svg width="25" height="24" viewBox="0 0 25 24" fill="none" xmlns="http://www.w3.org/2000/svg">
<path d="M12.25 6V22M12.25 6H8.71429C8.19332 6 7.6937 5.78929 7.32533 5.41421C6.95695 5.03914 6.75 4.53043 6.75 4C6.75 3.46957 6.95695 2.96086 7.32533 2.58579C7.6937 2.21071 8.19332 2 8.71429 2C11.4643 2 12.25 6 12.25 6ZM12.25 6H15.7857C16.3067 6 16.8063 5.78929 17.1747 5.41421C17.543 5.03914 17.75 4.53043 17.75 4C17.75 3.46957 17.543 2.96086 17.1747 2.58579C16.8063 2.21071 16.3067 2 15.7857 2C13.0357 2 12.25 6 12.25 6ZM20.25 11V18.8C20.25 19.9201 20.25 20.4802 20.032 20.908C19.8403 21.2843 19.5343 21.5903 19.158 21.782C18.7302 22 18.1701 22 17.05 22L7.45 22C6.32989 22 5.76984 22 5.34202 21.782C4.96569 21.5903 4.65973 21.2843 4.46799 20.908C4.25 20.4802 4.25 19.9201 4.25 18.8V11M2.25 7.6L2.25 9.4C2.25 9.96005 2.25 10.2401 2.35899 10.454C2.45487 10.6422 2.60785 10.7951 2.79601 10.891C3.00992 11 3.28995 11 3.85 11L20.65 11C21.2101 11 21.4901 11 21.704 10.891C21.8922 10.7951 22.0451 10.6422 22.141 10.454C22.25 10.2401 22.25 9.96005 22.25 9.4V7.6C22.25 7.03995 22.25 6.75992 22.141 6.54601C22.0451 6.35785 21.8922 6.20487 21.704 6.10899C21.4901 6 21.2101 6 20.65 6L3.85 6C3.28995 6 3.00992 6 2.79601 6.10899C2.60785 6.20487 2.45487 6.35785 2.35899 6.54601C2.25 6.75992 2.25 7.03995 2.25 7.6Z" stroke="#00C056" stroke-width="2" stroke-linecap="round" stroke-linejoin="round"/>
</svg>
