<svg width="24" height="24" viewBox="0 0 24 24" fill="none" xmlns="http://www.w3.org/2000/svg">
<path d="M2.83315 18.2422C2.83315 18.2455 2.83315 18.2516 2.8294 18.26C2.8308 18.2544 2.83174 18.2483 2.83315 18.2422Z" fill="white"/>
<path d="M20.6203 19.0124C20.466 19.009 20.3136 18.9773 20.1708 18.9186L17.5092 17.975L17.4896 17.9671C17.4315 17.9429 17.3692 17.9308 17.3063 17.9314C17.2483 17.9315 17.1908 17.942 17.1366 17.9624C17.0719 17.9868 16.4892 18.2057 15.878 18.3735C15.5466 18.4644 14.393 18.7611 13.4672 18.7611C11.101 18.7611 8.88846 17.8518 7.23799 16.2003C6.4317 15.399 5.79236 14.4457 5.35698 13.3956C4.92161 12.3455 4.69884 11.2195 4.70159 10.0827C4.70157 9.49038 4.76537 8.89978 4.8919 8.32113C5.30393 6.41707 6.39518 4.68504 7.96455 3.44613C9.57441 2.18334 11.5618 1.49793 13.6078 1.49988C16.0552 1.49988 18.3356 2.43738 20.0297 4.13332C21.631 5.73973 22.5085 7.85191 22.5014 10.0804C22.5 11.7362 22.0056 13.3542 21.0811 14.728L21.0722 14.7411L21.0375 14.788C21.0296 14.7988 21.0216 14.8091 21.0141 14.8199L21.0071 14.8325C20.9884 14.8643 20.9715 14.897 20.9564 14.9305L21.6942 17.5527C21.7269 17.6609 21.7445 17.773 21.7467 17.886C21.7469 18.034 21.7179 18.1805 21.6614 18.3173C21.6048 18.454 21.5219 18.5782 21.4172 18.6829C21.3126 18.7875 21.1884 18.8705 21.0516 18.927C20.9149 18.9836 20.7683 19.0126 20.6203 19.0124Z" fill="white"/>
<path d="M14.0564 19.94C14.008 19.8458 13.9398 19.7632 13.8566 19.6977C13.7734 19.6321 13.677 19.5853 13.5741 19.5604C13.3031 19.4886 12.9872 19.5008 12.7458 19.483C10.4664 19.3245 8.32148 18.3463 6.70737 16.7291C5.2724 15.3022 4.33982 13.4477 4.05002 11.4449C3.9844 10.9883 3.9844 10.8749 3.9844 10.8749C3.98437 10.7226 3.93796 10.5738 3.85134 10.4485C3.76472 10.3232 3.64199 10.2273 3.4995 10.1734C3.357 10.1196 3.20149 10.1104 3.05365 10.1471C2.90581 10.1838 2.77265 10.2647 2.6719 10.3789C2.6719 10.3789 2.30252 10.7811 2.12815 11.1847C1.63909 12.3115 1.43053 13.5401 1.52033 14.7652C1.61014 15.9903 1.99563 17.1753 2.64377 18.2188C2.76565 18.4218 2.76565 18.5155 2.73846 18.7264C2.61049 19.3879 2.38643 20.5546 2.26971 21.1597C2.23107 21.356 2.24544 21.559 2.31135 21.7478C2.37727 21.9367 2.49234 22.1045 2.64471 22.2341L2.66627 22.2524C2.86784 22.4125 3.11762 22.4997 3.37502 22.4999C3.51981 22.5 3.66318 22.4715 3.7969 22.416L6.30518 21.448C6.39154 21.4152 6.48694 21.4152 6.5733 21.448C7.56096 21.8155 8.58893 22.0105 9.56299 22.0105C10.7767 22.0116 11.9756 21.745 13.0744 21.2296C13.3303 21.1096 13.7306 20.9793 13.965 20.7083C14.0537 20.6032 14.1097 20.4744 14.1259 20.3379C14.1421 20.2013 14.118 20.063 14.0564 19.94Z" fill="white"/>
</svg>
