<svg width="24" height="24" viewBox="0 0 24 24" fill="none" xmlns="http://www.w3.org/2000/svg">
<path d="M22.6791 1.52103C22.5016 1.47882 22.3148 1.5016 22.1527 1.58525L21 2.16087L19.8375 1.57962C19.7334 1.52756 19.6185 1.50045 19.5021 1.50045C19.3857 1.50045 19.2709 1.52756 19.1667 1.57962L17.9897 2.16134L16.8281 1.57962C16.7237 1.52718 16.6084 1.49987 16.4916 1.49987C16.3747 1.49987 16.2594 1.52718 16.155 1.57962L15 2.15947L13.8539 1.58103C13.7497 1.52823 13.6347 1.50047 13.5179 1.49998C13.4011 1.4995 13.2858 1.52629 13.1813 1.57822L12 2.16181L10.8375 1.57916C10.7332 1.52712 10.6182 1.50003 10.5016 1.50003C10.3851 1.50003 10.2701 1.52712 10.1658 1.57916L9 2.16087L7.83563 1.57916C7.68552 1.50391 7.5145 1.48121 7.34996 1.5147C7.18543 1.54819 7.03688 1.63592 6.92813 1.76384C6.8109 1.90356 6.7477 2.0807 6.75 2.26306V13.4999L6.75234 13.5023H15.75C16.1478 13.5023 16.5294 13.6603 16.8107 13.9416C17.092 14.2229 17.25 14.6045 17.25 15.0023V19.8749C17.25 21.3248 18.8002 22.4999 20.25 22.4999H20.8125C21.459 22.4999 22.079 22.2431 22.5361 21.786C22.9932 21.3289 23.25 20.7089 23.25 20.0624V2.24994C23.2501 2.08207 23.194 1.91902 23.0904 1.78686C22.9869 1.65471 22.8421 1.56111 22.6791 1.52103ZM19.5 11.2499H13.5234C13.1184 11.2499 12.7687 10.9387 12.7509 10.5337C12.7464 10.4325 12.7624 10.3314 12.798 10.2365C12.8335 10.1417 12.888 10.055 12.958 9.98174C13.028 9.9085 13.1121 9.85019 13.2053 9.81035C13.2984 9.77051 13.3987 9.74996 13.5 9.74994H19.4766C19.8816 9.74994 20.2313 10.0612 20.2491 10.4662C20.2536 10.5674 20.2376 10.6685 20.202 10.7634C20.1665 10.8582 20.112 10.9449 20.042 11.0181C19.972 11.0914 19.8879 11.1497 19.7947 11.1895C19.7016 11.2294 19.6013 11.2499 19.5 11.2499ZM19.5 7.49994H10.5234C10.1184 7.49994 9.76875 7.18869 9.75094 6.78369C9.74638 6.68247 9.76237 6.58138 9.79796 6.48652C9.83354 6.39166 9.88798 6.30499 9.95798 6.23174C10.028 6.1585 10.1121 6.10019 10.2053 6.06035C10.2984 6.02051 10.3987 5.99996 10.5 5.99994H19.4766C19.8816 5.99994 20.2313 6.31119 20.2491 6.71619C20.2536 6.8174 20.2376 6.91849 20.202 7.01336C20.1665 7.10822 20.112 7.19489 20.042 7.26813C19.972 7.34138 19.8879 7.39968 19.7947 7.43952C19.7016 7.47936 19.6013 7.49991 19.5 7.49994Z" fill="white"/>
<path d="M15.75 19.8749V15.7499C15.75 15.551 15.671 15.3603 15.5303 15.2196C15.3897 15.079 15.1989 14.9999 15 14.9999H2.25C1.85215 15.0012 1.47098 15.1599 1.18988 15.4415C0.908777 15.723 0.750618 16.1044 0.75 16.5023C0.75 18.8718 1.02094 19.8571 1.42781 20.6071C2.11828 21.8807 3.36844 22.4999 5.25 22.4999H16.7663C16.8032 22.5 16.8394 22.4891 16.8702 22.4686C16.901 22.4481 16.9251 22.4189 16.9394 22.3848C16.9536 22.3507 16.9575 22.3131 16.9505 22.2768C16.9435 22.2405 16.9258 22.207 16.8998 22.1807C16.4564 21.7359 15.75 21.1406 15.75 19.8749Z" fill="white"/>
</svg>
