<svg width="24" height="24" viewBox="0 0 24 24" fill="none" xmlns="http://www.w3.org/2000/svg">
<path d="M12 20.0625C9.5461 20.0625 6.7786 19.5183 4.59704 18.6094C3.79689 18.2723 3.11157 17.7272 2.55142 17.2969C2.52363 17.2756 2.49045 17.2626 2.45563 17.2592C2.42082 17.2558 2.38575 17.2622 2.35439 17.2777C2.32303 17.2932 2.29664 17.3172 2.2782 17.3469C2.25975 17.3767 2.24999 17.411 2.25001 17.4459V18.0356C2.25001 19.3514 3.3511 20.5303 5.35032 21.3553C7.1386 22.0936 9.50017 22.5 12 22.5C14.4999 22.5 16.8609 22.0936 18.6497 21.3553C20.6489 20.5312 21.75 19.3514 21.75 18.0356V17.4459C21.75 17.411 21.7403 17.3767 21.7218 17.3469C21.7034 17.3172 21.677 17.2932 21.6456 17.2777C21.6143 17.2622 21.5792 17.2558 21.5444 17.2592C21.5096 17.2626 21.4764 17.2756 21.4486 17.2969C20.8884 17.7267 20.2031 18.2723 19.4025 18.6094C17.2209 19.5183 14.4539 20.0625 12 20.0625Z" fill="white"/>
<path d="M21.75 5.93016C21.712 4.63406 20.6166 3.47391 18.6563 2.65594C16.8628 1.91063 14.5003 1.5 12 1.5C9.4997 1.5 7.1372 1.91063 5.34798 2.65594C3.38954 3.47203 2.29407 4.62984 2.25423 5.92266L2.25001 6.75C2.25001 7.05047 2.49376 7.5225 2.93579 7.90922C3.45751 8.36531 4.23189 8.81531 5.17548 9.20906C7.18314 10.0481 9.73454 10.5469 12 10.5469C14.2655 10.5469 16.8169 10.0462 18.8245 9.20719C19.7681 8.81344 20.5425 8.36344 21.0642 7.90734C21.5063 7.52297 21.75 7.05094 21.75 6.75V5.93016Z" fill="white"/>
<path d="M19.4025 10.5938C17.2214 11.5045 14.4539 12.0469 12 12.0469C9.5461 12.0469 6.7786 11.5045 4.59704 10.5938C3.79689 10.2586 3.11157 9.71297 2.55142 9.28125C2.5235 9.2599 2.49015 9.24682 2.45517 9.24351C2.42018 9.2402 2.38497 9.24679 2.35354 9.26252C2.32212 9.27826 2.29575 9.30251 2.27745 9.33251C2.25914 9.36251 2.24963 9.39705 2.25001 9.43219V10.875C2.25001 11.1755 2.49376 11.5538 2.93579 11.9405C3.45751 12.397 4.23189 12.8466 5.17548 13.2408C7.18314 14.0784 9.73454 14.5781 12 14.5781C14.2655 14.5781 16.8169 14.0775 18.8245 13.2389C19.7681 12.8447 20.5425 12.3952 21.0642 11.9386C21.5063 11.5533 21.75 11.1755 21.75 10.875V9.43219C21.75 9.39721 21.7403 9.36292 21.7218 9.33319C21.7034 9.30347 21.677 9.2795 21.6456 9.26399C21.6143 9.24848 21.5792 9.24206 21.5444 9.24544C21.5096 9.24882 21.4764 9.26187 21.4486 9.28312C20.8884 9.71297 20.2031 10.2586 19.4025 10.5938Z" fill="white"/>
<path d="M19.4025 14.625C17.2209 15.5348 14.4539 16.0781 12 16.0781C9.5461 16.0781 6.7786 15.5348 4.59704 14.625C3.79689 14.2889 3.11157 13.7433 2.55142 13.3125C2.52357 13.2912 2.4903 13.2781 2.4554 13.2748C2.4205 13.2714 2.38536 13.278 2.35397 13.2936C2.32258 13.3092 2.2962 13.3333 2.27782 13.3632C2.25945 13.393 2.24981 13.4274 2.25001 13.4625V14.8594C2.25001 15.1598 2.49376 15.5377 2.93532 15.9239C3.45704 16.3805 4.23189 16.83 5.17548 17.2242C7.18314 18.0619 9.73407 18.5625 12 18.5625C14.2659 18.5625 16.8169 18.0619 18.8245 17.2233C19.7681 16.8291 20.5425 16.3795 21.0642 15.923C21.5063 15.5363 21.75 15.158 21.75 14.8594V13.4625C21.75 13.4275 21.7403 13.3932 21.7218 13.3635C21.7034 13.3338 21.677 13.3098 21.6456 13.2943C21.6143 13.2788 21.5792 13.2724 21.5444 13.2758C21.5096 13.2791 21.4764 13.2922 21.4486 13.3134C20.8884 13.7433 20.2031 14.2889 19.4025 14.625Z" fill="white"/>
</svg>
