<svg width="25" height="24" viewBox="0 0 25 24" fill="none" xmlns="http://www.w3.org/2000/svg">
<path d="M5.74993 13C5.74993 14.6484 6.41466 16.1415 7.49067 17.226C7.59445 17.3305 7.64633 17.3828 7.67696 17.4331C7.70619 17.4811 7.7232 17.5224 7.73625 17.5771C7.74993 17.6343 7.74993 17.6995 7.74993 17.8298V20.2C7.74993 20.48 7.74993 20.62 7.80443 20.727C7.85236 20.8211 7.92885 20.8976 8.02293 20.9455C8.12989 21 8.2699 21 8.54993 21H10.4499C10.73 21 10.87 21 10.9769 20.9455C11.071 20.8976 11.1475 20.8211 11.1954 20.727C11.2499 20.62 11.2499 20.48 11.2499 20.2V19.8C11.2499 19.52 11.2499 19.38 11.3044 19.273C11.3524 19.1789 11.4289 19.1024 11.5229 19.0545C11.6299 19 11.7699 19 12.0499 19H13.4499C13.73 19 13.87 19 13.9769 19.0545C14.071 19.1024 14.1475 19.1789 14.1954 19.273C14.2499 19.38 14.2499 19.52 14.2499 19.8V20.2C14.2499 20.48 14.2499 20.62 14.3044 20.727C14.3524 20.8211 14.4289 20.8976 14.5229 20.9455C14.6299 21 14.7699 21 15.0499 21H16.95C17.23 21 17.37 21 17.477 20.9455C17.5711 20.8976 17.6476 20.8211 17.6955 20.727C17.75 20.62 17.75 20.48 17.75 20.2V19.2243C17.75 19.0223 17.75 18.9212 17.7788 18.8401C17.8063 18.7624 17.8411 18.708 17.9 18.6502C17.9614 18.59 18.0655 18.5417 18.2737 18.445C19.2559 17.989 20.094 17.2751 20.7011 16.3902C20.8079 16.2346 20.8612 16.1568 20.9183 16.1108C20.9728 16.0668 21.0217 16.0411 21.0887 16.021C21.1589 16 21.2422 16 21.4087 16H21.95C22.23 16 22.37 16 22.477 15.9455C22.5711 15.8976 22.6476 15.8211 22.6955 15.727C22.75 15.62 22.75 15.48 22.75 15.2V11.7857C22.75 11.5192 22.75 11.3859 22.7005 11.283C22.6513 11.181 22.569 11.0987 22.467 11.0495C22.3641 11 22.2308 11 21.9643 11C21.7713 11 21.6748 11 21.5971 10.9738C21.5133 10.9456 21.4545 10.908 21.3937 10.8438C21.3374 10.7842 21.2913 10.6846 21.1993 10.4855C20.9038 9.84622 20.4992 9.26777 20.0093 8.77404C19.9055 8.66945 19.8536 8.61716 19.823 8.56687C19.7937 8.51889 19.7767 8.47759 19.7637 8.42294C19.75 8.36567 19.75 8.30051 19.75 8.17018V7.06058C19.75 6.70053 19.75 6.52051 19.675 6.39951C19.6093 6.29351 19.5064 6.21588 19.3865 6.18184C19.2495 6.14299 19.0764 6.19245 18.7302 6.29136L16.3577 6.96922C16.3173 6.98074 16.2972 6.9865 16.2767 6.99054C16.2585 6.99414 16.2401 6.99671 16.2216 6.99826C16.2008 7 16.1798 7 16.1379 7H15.709M5.74993 13C5.74993 10.6959 7.04864 8.6952 8.95397 7.6899M5.74993 13H4.75C3.64543 13 2.75 12.1046 2.75 11C2.75 10.2597 3.1522 9.61337 3.75 9.26756M15.75 6.5C15.75 8.433 14.183 10 12.25 10C10.317 10 8.75 8.433 8.75 6.5C8.75 4.567 10.317 3 12.25 3C14.183 3 15.75 4.567 15.75 6.5Z" stroke="#00C056" stroke-width="2" stroke-linecap="round" stroke-linejoin="round"/>
</svg>
