<svg width="24" height="24" viewBox="0 0 24 24" fill="none" xmlns="http://www.w3.org/2000/svg">
<path d="M12.1368 2.25017C6.65341 2.17611 2.17684 6.65267 2.25091 12.1361C2.32403 17.395 6.60606 21.677 11.865 21.7502C17.3493 21.8252 21.825 17.3486 21.75 11.8652C21.6778 6.60533 17.3957 2.3233 12.1368 2.25017ZM11.9643 9.38033C11.9742 9.32408 11.985 9.26783 11.9976 9.21205C12.116 8.66462 12.3798 8.15923 12.7612 7.74908C13.3654 7.10549 14.2218 6.75017 15.1729 6.75017C15.5731 6.74853 15.9705 6.81609 16.3476 6.94986C16.8164 7.11677 17.2386 7.39318 17.579 7.75611C18.0798 8.29742 18.378 8.99534 18.4228 9.73142C18.4357 9.90931 18.4357 10.0879 18.4228 10.2658C18.3867 10.77 18.2563 11.2629 18.0384 11.7189C18.0147 11.7686 17.9898 11.8178 17.9639 11.8666C17.9118 11.9636 17.8561 12.0588 17.7961 12.1506C17.6766 12.3341 17.5413 12.5066 17.3915 12.6663C16.7765 13.3225 15.989 13.6849 15.1739 13.6849C14.8682 13.6847 14.5646 13.6343 14.2753 13.5358C14.1781 13.5028 14.0826 13.4648 13.9893 13.4219C13.5987 13.2396 13.2473 12.983 12.9548 12.6663C12.346 12.0059 11.9821 11.1569 11.9236 10.2606C11.9151 10.1394 11.9123 10.0194 11.9151 9.90064C11.9188 9.72654 11.9352 9.55295 11.9643 9.38127V9.38033ZM4.94575 10.5213C4.96856 10.1868 5.05111 9.85912 5.1895 9.55377C5.22854 9.46872 5.27204 9.38579 5.31981 9.30533C5.41537 9.14404 5.52839 8.99376 5.65684 8.85721C5.84713 8.65421 6.06868 8.48298 6.31309 8.35002C6.43516 8.28331 6.56227 8.22626 6.69325 8.17939C7.19514 8.00385 7.73474 7.96518 8.25653 8.06736C8.80943 8.1743 9.3144 8.4532 9.69934 8.86424C10.1561 9.35732 10.4135 10.0025 10.4217 10.6745C10.424 10.7735 10.4217 10.8728 10.4147 10.9736C10.3861 11.3595 10.2909 11.7376 10.1334 12.0911C10.058 12.2613 9.96813 12.4247 9.86481 12.5795C9.6661 12.8798 9.41602 13.1428 9.12606 13.3563C9.05575 13.4064 8.98263 13.4533 8.90716 13.5002C8.75872 13.5886 8.60166 13.6616 8.43841 13.7181C8.1943 13.8034 7.93761 13.8472 7.67903 13.8475C7.63544 13.8475 7.59184 13.8475 7.54872 13.8438C7.4626 13.8391 7.37683 13.8293 7.29184 13.8147C7.20728 13.8 7.12356 13.7807 7.04106 13.7571C6.91714 13.7213 6.79615 13.676 6.67919 13.6216C6.63981 13.6033 6.60137 13.5841 6.56294 13.5639C5.71919 13.1191 5.08309 12.197 4.95841 11.1208C4.95278 11.0716 4.94809 11.0224 4.94481 10.9727C4.93423 10.8224 4.93454 10.6715 4.94575 10.5213ZM7.47325 18.8931C6.22518 18.0705 5.22213 16.9264 4.56981 15.5814C4.54851 15.5384 4.54451 15.4889 4.55863 15.443C4.57276 15.3971 4.60394 15.3584 4.64575 15.3349C5.51669 14.845 6.62903 14.5783 7.67997 14.5783C8.47684 14.5783 9.11903 14.672 9.68106 14.8539C9.74478 14.8749 9.80171 14.9126 9.84591 14.963C9.89011 15.0135 9.91996 15.0749 9.93236 15.1408C9.94476 15.2067 9.93925 15.2748 9.91641 15.3378C9.89356 15.4009 9.85421 15.4567 9.80247 15.4994C8.70794 16.39 8.00247 17.4935 7.67106 18.8158C7.66611 18.836 7.65635 18.8548 7.64264 18.8704C7.62892 18.8861 7.61163 18.8982 7.59223 18.9058C7.57284 18.9134 7.5519 18.9162 7.53119 18.914C7.51049 18.9118 7.49061 18.9046 7.47325 18.8931ZM12.0009 20.2502C10.9456 20.2512 9.89991 20.0488 8.92122 19.6539C8.88122 19.6374 8.84817 19.6076 8.82767 19.5695C8.80716 19.5314 8.80047 19.4873 8.80872 19.4449C8.82747 19.3488 8.84809 19.2611 8.86637 19.188C9.20012 17.8553 10.027 16.7505 11.257 15.992C12.3487 15.3194 13.7414 14.9491 15.172 14.9491C16.6326 14.9491 17.9845 15.3044 19.0851 15.9761C19.1132 15.9937 19.1333 16.0214 19.1412 16.0535C19.1492 16.0856 19.1444 16.1195 19.1278 16.1481C18.4019 17.3951 17.362 18.43 16.1115 19.1498C14.861 19.8695 13.4437 20.2489 12.0009 20.2502Z" fill="#FCFCFC"/>
<path d="M10.4151 10.9713C10.4222 10.8705 10.4245 10.7711 10.4222 10.6722C10.4247 10.7706 10.4223 10.8703 10.4151 10.9713Z" fill="#FCFCFC"/>
<path d="M4.95934 11.1185C5.08403 12.1966 5.72153 13.1167 6.56387 13.5616C5.71966 13.1167 5.08403 12.1947 4.95934 11.1185Z" fill="#FCFCFC"/>
<path d="M11.9231 10.2658C11.9147 10.1445 11.9118 10.0245 11.9147 9.9058C11.9118 10.023 11.9147 10.143 11.9231 10.2658Z" fill="#FCFCFC"/>
</svg>
