<svg width="24" height="24" viewBox="0 0 24 24" fill="none" xmlns="http://www.w3.org/2000/svg">
<path d="M5.70706 1.49976C5.67595 1.49948 5.64527 1.50693 5.61776 1.52146C5.59025 1.53599 5.5668 1.55714 5.5495 1.58299C5.5322 1.60885 5.52161 1.6386 5.51867 1.66956C5.51574 1.70053 5.52055 1.73175 5.53269 1.76039L5.6405 2.01492L7.54831 6.46336C7.56128 6.49361 7.58198 6.51992 7.60834 6.53964C7.63469 6.55936 7.66578 6.57179 7.69846 6.57569C7.73115 6.57958 7.76428 6.5748 7.79454 6.56183C7.82479 6.54886 7.8511 6.52816 7.87081 6.50179L11.3921 1.79976C11.413 1.77191 11.4257 1.73878 11.4288 1.7041C11.4319 1.66942 11.4253 1.63456 11.4098 1.60341C11.3942 1.57227 11.3703 1.54607 11.3406 1.52777C11.311 1.50946 11.2769 1.49976 11.2421 1.49976H5.70706Z" fill="#FCFCFC"/>
<path d="M19.6857 2.72133L17.7507 7.23867C17.7385 7.26719 17.7336 7.29828 17.7364 7.32916C17.7392 7.36004 17.7496 7.38975 17.7667 7.41562C17.7838 7.44149 17.807 7.46272 17.8343 7.4774C17.8616 7.49209 17.8921 7.49977 17.9232 7.49976H22.6575C22.691 7.49978 22.7238 7.49086 22.7526 7.47392C22.7814 7.45698 22.8052 7.43265 22.8215 7.40344C22.8377 7.37422 22.8459 7.3412 22.8451 7.30778C22.8443 7.27436 22.8345 7.24176 22.8169 7.21336L20.0171 2.69648C19.999 2.6674 19.9733 2.64383 19.9427 2.62833C19.9122 2.61283 19.878 2.60598 19.8438 2.60854C19.8097 2.6111 19.7769 2.62297 19.749 2.64285C19.7211 2.66273 19.6992 2.68987 19.6857 2.72133Z" fill="#FCFCFC"/>
<path d="M3.98581 2.69836L1.1869 7.21336C1.16927 7.24176 1.15955 7.27436 1.15875 7.30778C1.15795 7.3412 1.1661 7.37422 1.18235 7.40344C1.19861 7.43265 1.22238 7.45698 1.2512 7.47392C1.28002 7.49086 1.31285 7.49978 1.34628 7.49976H6.08065C6.11168 7.49973 6.14222 7.49199 6.16952 7.47725C6.19682 7.46251 6.22004 7.44122 6.23709 7.4153C6.25414 7.38937 6.26449 7.35962 6.26721 7.32872C6.26993 7.29781 6.26494 7.26671 6.25269 7.2382L4.31394 2.7232C4.30007 2.69253 4.2782 2.66616 4.25063 2.64685C4.22306 2.62755 4.1908 2.61602 4.15724 2.61348C4.12368 2.61094 4.09005 2.61748 4.05989 2.63241C4.02972 2.64735 4.00414 2.67013 3.98581 2.69836Z" fill="#FCFCFC"/>
<path d="M12.5555 1.49976C12.5385 1.49965 12.5219 1.50429 12.5074 1.51316C12.4929 1.52202 12.4812 1.53476 12.4736 1.54993C12.466 1.56509 12.4628 1.58209 12.4644 1.59898C12.4659 1.61588 12.4721 1.63201 12.4824 1.64555L16.2286 6.63586C16.2382 6.64868 16.251 6.65875 16.2657 6.66505C16.2804 6.67136 16.2965 6.67368 16.3123 6.67178C16.3282 6.66988 16.3433 6.66382 16.3561 6.65422C16.3689 6.64462 16.3789 6.63182 16.3852 6.61711L18.3577 2.01539L18.5171 1.62445C18.5227 1.61103 18.525 1.59645 18.5237 1.58196C18.5225 1.56747 18.5177 1.55349 18.5099 1.54124C18.502 1.52898 18.4914 1.5188 18.4787 1.51158C18.4661 1.50436 18.4519 1.5003 18.4374 1.49976H12.5555Z" fill="#FCFCFC"/>
<path d="M11.2046 20.9998L7.01253 9.11742C7.00022 9.08291 6.97752 9.05307 6.94755 9.032C6.91758 9.01093 6.88182 8.99967 6.84519 8.99976H1.20612C1.17346 8.99967 1.14142 9.00875 1.11367 9.02598C1.08591 9.04321 1.06355 9.06788 1.04914 9.0972C1.03473 9.12651 1.02884 9.15929 1.03215 9.19179C1.03545 9.22429 1.04782 9.2552 1.06784 9.28101L11.1928 22.3971C11.2271 22.4415 11.276 22.4723 11.3308 22.4841C11.3857 22.4958 11.4429 22.4878 11.4924 22.4613C11.5421 22.4352 11.5808 22.392 11.6014 22.3396C11.6219 22.2873 11.623 22.2294 11.6044 22.1763L11.2046 20.9998Z" fill="#FCFCFC"/>
<path d="M22.7967 8.99976H17.1577C17.1212 8.99975 17.0857 9.01107 17.056 9.03215C17.0262 9.05323 17.0038 9.08303 16.9917 9.11742L12.3886 22.1562C12.3693 22.2109 12.3701 22.2707 12.3909 22.3249C12.4117 22.3791 12.4511 22.4242 12.5021 22.452C12.5531 22.4796 12.6122 22.4882 12.6689 22.4762C12.7257 22.4643 12.7764 22.4326 12.8119 22.3868L22.935 9.28101C22.9551 9.2552 22.9674 9.22429 22.9707 9.19179C22.974 9.15929 22.9681 9.12651 22.9537 9.0972C22.9393 9.06788 22.917 9.04321 22.8892 9.02598C22.8615 9.00875 22.8294 8.99967 22.7967 8.99976Z" fill="#FCFCFC"/>
<path d="M12.1514 3.69961L14.7764 7.19976C14.7973 7.22762 14.8101 7.26074 14.8132 7.29542C14.8163 7.3301 14.8097 7.36497 14.7941 7.39612C14.7786 7.42726 14.7546 7.45345 14.725 7.47176C14.6954 7.49007 14.6613 7.49976 14.6264 7.49976H9.37644C9.34161 7.49976 9.30748 7.49007 9.27786 7.47176C9.24824 7.45345 9.2243 7.42726 9.20873 7.39612C9.19316 7.36497 9.18657 7.3301 9.18969 7.29542C9.19282 7.26074 9.20554 7.22762 9.22644 7.19976L11.8514 3.69961C11.8689 3.67632 11.8915 3.65742 11.9176 3.6444C11.9436 3.63138 11.9723 3.62461 12.0014 3.62461C12.0305 3.62461 12.0593 3.63138 12.0853 3.6444C12.1113 3.65742 12.134 3.67632 12.1514 3.69961ZM11.8233 18.2454L8.64987 9.24961C8.63991 9.22134 8.63686 9.19109 8.641 9.16141C8.64513 9.13172 8.65632 9.10346 8.67363 9.07899C8.69093 9.05452 8.71386 9.03455 8.74047 9.02077C8.76709 9.00698 8.79662 8.99978 8.82659 8.99976H15.1763C15.2063 8.99978 15.2358 9.00698 15.2624 9.02077C15.289 9.03455 15.3119 9.05452 15.3292 9.07899C15.3466 9.10346 15.3577 9.13172 15.3619 9.16141C15.366 9.19109 15.363 9.22134 15.353 9.24961L12.1782 18.2454C12.1652 18.2819 12.1413 18.3135 12.1096 18.3359C12.078 18.3582 12.0402 18.3702 12.0014 18.3702C11.9627 18.3702 11.9249 18.3582 11.8933 18.3359C11.8616 18.3135 11.8377 18.2819 11.8247 18.2454H11.8233Z" fill="#FCFCFC"/>
</svg>
