<svg width="24" height="24" viewBox="0 0 24 24" fill="none" xmlns="http://www.w3.org/2000/svg">
<path d="M5.70706 1.49989C5.67595 1.4996 5.64527 1.50706 5.61776 1.52159C5.59025 1.53611 5.5668 1.55726 5.5495 1.58311C5.5322 1.60897 5.52161 1.63872 5.51867 1.66969C5.51574 1.70066 5.52055 1.73187 5.53269 1.76051L5.6405 2.01504L7.54831 6.46348C7.56128 6.49374 7.58198 6.52005 7.60834 6.53976C7.63469 6.55948 7.66578 6.57191 7.69846 6.57581C7.73115 6.5797 7.76428 6.57493 7.79454 6.56196C7.82479 6.54898 7.8511 6.52828 7.87081 6.50192L11.3921 1.79989C11.413 1.77203 11.4257 1.7389 11.4288 1.70422C11.4319 1.66954 11.4253 1.63468 11.4098 1.60353C11.3942 1.57239 11.3703 1.5462 11.3406 1.52789C11.311 1.50958 11.2769 1.49989 11.2421 1.49989H5.70706Z" fill="#AFAFAF"/>
<path d="M19.6857 2.72145L17.7507 7.23879C17.7385 7.26731 17.7336 7.2984 17.7364 7.32928C17.7392 7.36017 17.7496 7.38987 17.7667 7.41574C17.7838 7.44161 17.807 7.46284 17.8343 7.47753C17.8616 7.49221 17.8921 7.49989 17.9232 7.49989H22.6575C22.691 7.4999 22.7238 7.49098 22.7526 7.47404C22.7814 7.4571 22.8052 7.43277 22.8215 7.40356C22.8377 7.37435 22.8459 7.34132 22.8451 7.3079C22.8443 7.27448 22.8345 7.24188 22.8169 7.21348L20.0171 2.6966C19.999 2.66752 19.9733 2.64395 19.9427 2.62845C19.9122 2.61295 19.878 2.60611 19.8438 2.60867C19.8097 2.61123 19.7769 2.62309 19.749 2.64297C19.7211 2.66286 19.6992 2.69 19.6857 2.72145Z" fill="#AFAFAF"/>
<path d="M3.98581 2.69848L1.1869 7.21348C1.16927 7.24188 1.15955 7.27448 1.15875 7.3079C1.15795 7.34132 1.1661 7.37435 1.18235 7.40356C1.19861 7.43277 1.22238 7.4571 1.2512 7.47404C1.28002 7.49098 1.31285 7.4999 1.34628 7.49989H6.08065C6.11168 7.49985 6.14222 7.49211 6.16952 7.47737C6.19682 7.46263 6.22004 7.44134 6.23709 7.41542C6.25414 7.38949 6.26449 7.35975 6.26721 7.32884C6.26993 7.29793 6.26494 7.26683 6.25269 7.23832L4.31394 2.72332C4.30007 2.69265 4.2782 2.66628 4.25063 2.64698C4.22306 2.62767 4.1908 2.61614 4.15724 2.6136C4.12368 2.61106 4.09005 2.6176 4.05989 2.63253C4.02972 2.64747 4.00414 2.67025 3.98581 2.69848Z" fill="#AFAFAF"/>
<path d="M12.5555 1.49989C12.5385 1.49978 12.5219 1.50442 12.5074 1.51328C12.4929 1.52215 12.4812 1.53488 12.4736 1.55005C12.466 1.56522 12.4628 1.58221 12.4644 1.59911C12.4659 1.616 12.4721 1.63213 12.4824 1.64567L16.2286 6.63598C16.2382 6.6488 16.251 6.65887 16.2657 6.66517C16.2804 6.67148 16.2965 6.6738 16.3123 6.6719C16.3282 6.67 16.3433 6.66394 16.3561 6.65434C16.3689 6.64475 16.3789 6.63194 16.3852 6.61723L18.3577 2.01551L18.5171 1.62457C18.5227 1.61115 18.525 1.59657 18.5237 1.58208C18.5225 1.56759 18.5177 1.55362 18.5099 1.54136C18.502 1.5291 18.4914 1.51892 18.4787 1.5117C18.4661 1.50448 18.4519 1.50042 18.4374 1.49989H12.5555Z" fill="#AFAFAF"/>
<path d="M11.2046 20.9999L7.01253 9.11754C7.00022 9.08304 6.97752 9.05319 6.94755 9.03212C6.91758 9.01105 6.88182 8.99979 6.84519 8.99989H1.20612C1.17346 8.99979 1.14142 9.00888 1.11367 9.0261C1.08591 9.04333 1.06355 9.06801 1.04914 9.09732C1.03473 9.12664 1.02884 9.15941 1.03215 9.19191C1.03545 9.22441 1.04782 9.25532 1.06784 9.28114L11.1928 22.3972C11.2271 22.4416 11.276 22.4724 11.3308 22.4842C11.3857 22.4959 11.4429 22.4879 11.4924 22.4614C11.5421 22.4353 11.5808 22.3921 11.6014 22.3398C11.6219 22.2875 11.623 22.2295 11.6044 22.1764L11.2046 20.9999Z" fill="#AFAFAF"/>
<path d="M22.7967 8.99989H17.1577C17.1212 8.99988 17.0857 9.01119 17.056 9.03227C17.0262 9.05335 17.0038 9.08315 16.9917 9.11754L12.3886 22.1563C12.3693 22.211 12.3701 22.2709 12.3909 22.3251C12.4117 22.3793 12.4511 22.4243 12.5021 22.4521C12.5531 22.4797 12.6122 22.4883 12.6689 22.4764C12.7257 22.4644 12.7764 22.4327 12.8119 22.3869L22.935 9.28114C22.9551 9.25532 22.9674 9.22441 22.9707 9.19191C22.974 9.15941 22.9681 9.12664 22.9537 9.09732C22.9393 9.06801 22.917 9.04333 22.8892 9.0261C22.8615 9.00888 22.8294 8.99979 22.7967 8.99989Z" fill="#AFAFAF"/>
<path d="M12.1514 3.69973L14.7764 7.19989C14.7973 7.22774 14.8101 7.26087 14.8132 7.29555C14.8163 7.33023 14.8097 7.36509 14.7941 7.39624C14.7786 7.42738 14.7546 7.45358 14.725 7.47188C14.6954 7.49019 14.6613 7.49989 14.6264 7.49989H9.37644C9.34161 7.49989 9.30748 7.49019 9.27786 7.47188C9.24824 7.45358 9.2243 7.42738 9.20873 7.39624C9.19316 7.36509 9.18657 7.33023 9.18969 7.29555C9.19282 7.26087 9.20554 7.22774 9.22644 7.19989L11.8514 3.69973C11.8689 3.67644 11.8915 3.65754 11.9176 3.64452C11.9436 3.63151 11.9723 3.62473 12.0014 3.62473C12.0305 3.62473 12.0593 3.63151 12.0853 3.64452C12.1113 3.65754 12.134 3.67644 12.1514 3.69973ZM11.8233 18.2455L8.64987 9.24973C8.63991 9.22146 8.63686 9.19122 8.641 9.16153C8.64513 9.13184 8.65632 9.10358 8.67363 9.07911C8.69093 9.05464 8.71386 9.03468 8.74047 9.02089C8.76709 9.00711 8.79662 8.9999 8.82659 8.99989H15.1763C15.2063 8.9999 15.2358 9.00711 15.2624 9.02089C15.289 9.03468 15.3119 9.05464 15.3292 9.07911C15.3466 9.10358 15.3577 9.13184 15.3619 9.16153C15.366 9.19122 15.363 9.22146 15.353 9.24973L12.1782 18.2455C12.1652 18.282 12.1413 18.3136 12.1096 18.336C12.078 18.3583 12.0402 18.3703 12.0014 18.3703C11.9627 18.3703 11.9249 18.3583 11.8933 18.336C11.8616 18.3136 11.8377 18.282 11.8247 18.2455H11.8233Z" fill="#AFAFAF"/>
</svg>
