<svg width="24" height="24" viewBox="0 0 24 24" fill="none" xmlns="http://www.w3.org/2000/svg">
<path fill-rule="evenodd" clip-rule="evenodd" d="M7.29299 4.875H19.4766C19.6518 4.87491 19.8268 4.88603 20.0006 4.90828C19.9417 4.49473 19.7997 4.0974 19.583 3.74024C19.3664 3.38308 19.0797 3.07348 18.7402 2.83012C18.4007 2.58676 18.0154 2.41467 17.6076 2.32423C17.1998 2.2338 16.7779 2.22688 16.3673 2.3039L4.51768 4.32695C4.35556 4.35179 4.19166 4.37937 4.02756 4.41H4.01718C3.94476 4.42384 3.87309 4.44023 3.80229 4.45908C2.02135 4.90727 1.5 6.52211 1.5 7.50003V8.62873C1.4846 8.75126 1.4767 8.87524 1.47656 9.00003V18C1.47743 18.7954 1.79378 19.558 2.3562 20.1204C2.91862 20.6828 3.68118 20.9992 4.47656 21H19.4766C20.2719 20.9992 21.0345 20.6828 21.5969 20.1204C22.1593 19.558 22.4757 18.7954 22.4766 18V9.00003C22.4757 8.20465 22.1593 7.44209 21.5969 6.87967C21.0345 6.31725 20.2719 6.0009 19.4766 6.00003H7.5C6.7064 6.00003 6.61943 5.03822 7.29299 4.875ZM17.25 15C16.9533 15 16.6633 14.9121 16.4166 14.7472C16.17 14.5824 15.9777 14.3481 15.8642 14.0741C15.7506 13.8 15.7209 13.4984 15.7788 13.2074C15.8367 12.9164 15.9796 12.6491 16.1893 12.4394C16.3991 12.2296 16.6664 12.0867 16.9574 12.0289C17.2483 11.971 17.5499 12.0007 17.824 12.1142C18.0981 12.2277 18.3324 12.42 18.4972 12.6667C18.662 12.9133 18.75 13.2034 18.75 13.5C18.75 13.8979 18.592 14.2794 18.3107 14.5607C18.0294 14.842 17.6478 15 17.25 15Z" fill="#FCFCFC"/>
</svg>
