<svg width="22" height="24" viewBox="0 0 22 24" fill="none" xmlns="http://www.w3.org/2000/svg">
<path d="M8.88806 10.068C8.20406 10.068 7.66406 10.668 7.66406 11.4C7.66406 12.132 8.21606 12.732 8.88806 12.732C9.57206 12.732 10.1121 12.132 10.1121 11.4C10.1241 10.668 9.57206 10.068 8.88806 10.068ZM13.2681 10.068C12.5841 10.068 12.0441 10.668 12.0441 11.4C12.0441 12.132 12.5961 12.732 13.2681 12.732C13.9521 12.732 14.4921 12.132 14.4921 11.4C14.4921 10.668 13.9521 10.068 13.2681 10.068Z" fill="#FCFCFC"/>
<path d="M19.1025 0H3.0225C1.6665 0 0.5625 1.104 0.5625 2.472V18.696C0.5625 20.064 1.6665 21.168 3.0225 21.168H16.6305L15.9945 18.948L17.5305 20.376L18.9825 21.72L21.5625 24V2.472C21.5625 1.104 20.4585 0 19.1025 0ZM14.4705 15.672C14.4705 15.672 14.0385 15.156 13.6785 14.7C15.2505 14.256 15.8505 13.272 15.8505 13.272C15.3585 13.596 14.8905 13.824 14.4705 13.98C13.8705 14.232 13.2945 14.4 12.7305 14.496C11.5785 14.712 10.5225 14.652 9.6225 14.484C8.9385 14.352 8.3505 14.16 7.8585 13.968C7.5825 13.86 7.2825 13.728 6.9825 13.56C6.9465 13.536 6.9105 13.524 6.8745 13.5C6.8505 13.488 6.8385 13.476 6.8265 13.464C6.6105 13.344 6.4905 13.26 6.4905 13.26C6.4905 13.26 7.0665 14.22 8.5905 14.676C8.2305 15.132 7.7865 15.672 7.7865 15.672C5.1345 15.588 4.1265 13.848 4.1265 13.848C4.1265 9.984 5.8545 6.852 5.8545 6.852C7.5825 5.556 9.2265 5.592 9.2265 5.592L9.3465 5.736C7.1865 6.36 6.1905 7.308 6.1905 7.308C6.1905 7.308 6.4545 7.164 6.8985 6.96C8.1825 6.396 9.2025 6.24 9.6225 6.204C9.6945 6.192 9.7545 6.18 9.8265 6.18C10.5585 6.084 11.3865 6.06 12.2505 6.156C13.3905 6.288 14.6145 6.624 15.8625 7.308C15.8625 7.308 14.9145 6.408 12.8745 5.784L13.0425 5.592C13.0425 5.592 14.6865 5.556 16.4145 6.852C16.4145 6.852 18.1425 9.984 18.1425 13.848C18.1425 13.848 17.1225 15.588 14.4705 15.672Z" fill="#FCFCFC"/>
</svg>
