<svg width="32" height="32" viewBox="0 0 32 32" fill="none" xmlns="http://www.w3.org/2000/svg">
<g clip-path="url(#clip0_1905_3484)">
<path d="M16 32C24.8366 32 32 24.8366 32 16C32 7.16344 24.8366 0 16 0C7.16344 0 0 7.16344 0 16C0 24.8366 7.16344 32 16 32Z" fill="#2EBAC6"/>
<path d="M22.934 21.574L17.584 8.042C17.28 7.342 16.834 7 16.243 7H15.77C15.178 7 14.731 7.343 14.429 8.042L12.102 13.938H10.341C9.813 13.94 9.385 14.386 9.381 14.938V14.952C9.385 15.505 9.813 15.951 10.341 15.953H11.287L9.066 21.574C9.02382 21.6977 9.00154 21.8273 9 21.958C9 22.273 9.092 22.52 9.263 22.712C9.433 22.904 9.67 23 9.973 23C10.1728 22.9968 10.3663 22.9295 10.525 22.808C10.695 22.685 10.814 22.506 10.905 22.301L13.351 15.953H15.047C15.574 15.951 16.002 15.504 16.007 14.952V14.925C16.002 14.372 15.574 13.925 15.047 13.924H14.14L16.006 9.057L21.093 22.3C21.185 22.505 21.303 22.684 21.474 22.807C21.635 22.929 21.828 22.997 22.027 22.999C22.329 22.999 22.566 22.903 22.737 22.711C22.907 22.519 22.999 22.272 22.999 21.957C23.0043 21.8259 22.9821 21.6961 22.934 21.574Z" fill="white"/>
</g>
<defs>
<clipPath id="clip0_1905_3484">
<rect width="32" height="32" fill="white"/>
</clipPath>
</defs>
</svg>
