<svg width="33" height="33" viewBox="0 0 33 33" fill="none" xmlns="http://www.w3.org/2000/svg">
<g clip-path="url(#clip0_175_24675)">
<path d="M16.5 0C25.6135 0 33 7.38795 33 16.5C33 25.6135 25.6135 33 16.5 33C7.38795 33 0 25.6128 0 16.5C0 7.38795 7.38795 0 16.5 0Z" fill="#F5AC37"/>
<path d="M17.1066 17.6651H23.3763C23.5099 17.6651 23.5731 17.6651 23.5827 17.4898C23.6339 16.852 23.6339 16.2105 23.5827 15.5719C23.5827 15.4479 23.5211 15.3967 23.3867 15.3967H10.9088C10.7544 15.3967 10.7128 15.4479 10.7128 15.5927V17.4282C10.7128 17.6651 10.7128 17.6651 10.9601 17.6651H17.1066ZM22.8825 13.2516C22.9003 13.2048 22.9003 13.1536 22.8825 13.1076C22.7778 12.8796 22.6538 12.6621 22.5098 12.4579C22.293 12.1089 22.0375 11.7874 21.7465 11.4985C21.6091 11.3241 21.4502 11.1674 21.272 11.0345C20.3795 10.2749 19.3185 9.73732 18.178 9.46704C17.6026 9.33785 17.0145 9.27622 16.4249 9.28142H10.8873C10.7329 9.28142 10.7121 9.34305 10.7121 9.47744V13.138C10.7121 13.2924 10.7121 13.334 10.9081 13.334H22.8083C22.8083 13.334 22.9115 13.3132 22.9323 13.2516H22.8818H22.8825ZM22.8825 19.8102C22.7073 19.7909 22.5306 19.7909 22.3553 19.8102H10.9192C10.7648 19.8102 10.7128 19.8102 10.7128 20.0166V23.5955C10.7128 23.7603 10.7128 23.8019 10.9192 23.8019H16.1992C16.4517 23.8212 16.7041 23.8034 16.9514 23.7507C17.7176 23.6957 18.4713 23.5294 19.19 23.2554C19.4514 23.1648 19.7038 23.0468 19.9422 22.9049H20.0142C21.252 22.2612 22.2573 21.2499 22.8914 20.0084C22.8914 20.0084 22.9635 19.8525 22.8825 19.8117V19.8102ZM8.64049 25.6574V25.5958V23.193V22.3785V19.955C8.64049 19.8206 8.64049 19.8005 8.47565 19.8005H6.23773C6.11373 19.8005 6.0625 19.8005 6.0625 19.6357V17.6762H8.45486C8.58851 17.6762 8.64049 17.6762 8.64049 17.501V15.5623C8.64049 15.4383 8.64049 15.4078 8.47565 15.4078H6.23773C6.11373 15.4078 6.0625 15.4078 6.0625 15.243V13.4283C6.0625 13.3147 6.0625 13.2843 6.22734 13.2843H8.44446C8.59891 13.2843 8.64049 13.2843 8.64049 13.0883V7.52984C8.64049 7.36501 8.64049 7.32343 8.8469 7.32343H16.5809C17.1422 7.3457 17.6998 7.40733 18.2515 7.50905C19.3883 7.71918 20.4805 8.12533 21.4792 8.70523C22.1415 9.09505 22.7511 9.5658 23.2939 10.1078C23.7022 10.5318 24.0705 10.9907 24.3972 11.4792C24.7217 11.9745 24.9912 12.5039 25.2029 13.0571C25.2288 13.2011 25.367 13.2984 25.511 13.2739H27.3569C27.5937 13.2739 27.5937 13.2739 27.6041 13.5011V15.1925C27.6041 15.3574 27.5425 15.3989 27.3769 15.3989H25.9535C25.8095 15.3989 25.7679 15.3989 25.7783 15.5846C25.8347 16.2127 25.8347 16.8431 25.7783 17.4713C25.7783 17.6465 25.7783 17.6673 25.9751 17.6673H27.6034C27.6754 17.7601 27.6034 17.8529 27.6034 17.9465C27.6138 18.066 27.6138 18.1871 27.6034 18.3066V19.5547C27.6034 19.73 27.5522 19.782 27.397 19.782H25.4479C25.312 19.756 25.1798 19.8428 25.1487 19.978C24.6846 21.1846 23.9421 22.2664 22.9828 23.1336C22.6323 23.4492 22.264 23.7462 21.8794 24.0202C21.4666 24.2578 21.0649 24.505 20.6416 24.7011C19.8627 25.0515 19.046 25.3099 18.2077 25.474C17.4117 25.6166 16.6046 25.6812 15.7945 25.67H8.63752V25.6596L8.64049 25.6574Z" fill="#FEFEFD"/>
</g>
<defs>
<clipPath id="clip0_175_24675">
<rect width="33" height="33" fill="white"/>
</clipPath>
</defs>
</svg>
