<svg width="32" height="32" viewBox="0 0 32 32" fill="none" xmlns="http://www.w3.org/2000/svg">
<g clip-path="url(#clip0_1905_3541)">
<path d="M16 32C24.8366 32 32 24.8366 32 16C32 7.16344 24.8366 0 16 0C7.16344 0 0 7.16344 0 16C0 24.8366 7.16344 32 16 32Z" fill="#11021E"/>
<path d="M10.929 14.3661H10.939L11.092 14.4241L11.255 14.4811L11.408 14.5391L11.571 14.6061L11.724 14.6641L11.887 14.7111L12.041 14.7691L12.194 14.8361L12.501 14.9511L12.664 14.9991L12.817 15.0661L12.98 15.1241L13.134 15.1811L13.297 15.2391L13.45 15.2961L13.613 15.3541L13.766 15.4111L13.929 15.4691L14.083 15.5361L14.246 15.5841V13.3501H10.708L10.555 13.4271L10.191 13.6191L9.817 13.8101L9.453 14.0021L9.088 14.1941L8.714 14.3861L8.341 14.5771L7.976 14.7691L7.612 14.9611L7.238 15.1521L6.874 15.3441L6.538 15.5261L6.5 21.0201L6.874 21.2791L7.238 21.5381L7.612 21.7871L8.341 22.3051L8.714 22.5631L8.877 22.6881L9.088 22.4291L9.453 21.9491L9.481 21.9021L9.453 21.8731L9.088 21.6141L8.714 21.3461L8.341 21.0871L7.976 20.8281L7.612 20.5701L7.507 20.5021L7.535 16.0641L7.612 16.0261L7.976 15.8441L8.341 15.6521L8.714 15.4791L9.088 15.2881L9.453 15.1051L9.817 14.9231L10.191 14.7411L10.555 14.5591L10.929 14.3661Z" fill="white"/>
<path d="M17.2755 24.8528L16.9585 24.9778L16.6135 25.1118L16.2685 25.2558L15.9235 25.3898L15.7705 25.4568L15.5885 25.3618L15.2425 25.1888L14.9075 25.0158L14.5625 24.8438L14.2175 24.6708L13.8725 24.4988L13.5275 24.3258L13.1815 24.1438L12.8365 23.9808L12.5015 23.7988L12.1565 23.6258L11.8205 23.4638L11.4755 23.2808L11.4375 23.2618V18.7858H10.4405V23.8758L11.8205 24.5658L12.1565 24.7378L12.5015 24.9208L12.8365 25.0838L13.1815 25.2658L13.5275 25.4378L13.8725 25.6008L14.2175 25.7828L14.9075 26.1278L15.2425 26.3008L15.7225 26.5408L15.9235 26.4538L16.2685 26.3198L16.6135 26.1858L16.9585 26.0418L17.3035 25.8978L17.6495 25.7738L17.3035 24.9108L17.2755 24.8528ZM23.4005 18.6128L23.4205 20.7308L23.3245 20.7988L22.7395 21.2108L22.1645 21.6328L21.5795 22.0448L20.9945 22.4668L20.4005 22.8688L19.8255 23.2908L19.2405 23.7128L18.8955 23.9618L18.6555 23.7698L18.0805 23.3298L17.4955 22.8788L16.9105 22.4378L16.3355 21.9878L16.2305 21.9198V19.6398L16.3355 19.5438L16.9105 18.9298L17.4955 18.3258L18.0805 17.7128L18.6555 17.1088L19.2215 16.5148H12.2525L12.8365 17.1278L13.4125 17.7318L14.0065 18.3358L14.5915 18.9488L15.1665 19.5528L15.2425 19.6398V22.3998L15.7515 22.7928L16.3355 23.2338L16.9105 23.6848L17.4955 24.1248L18.0805 24.5758L18.6555 25.0168L18.8755 25.1898L19.2405 24.9218L19.8255 24.5088L20.4005 24.0878L20.9945 23.6748L21.5795 23.2628L22.1645 22.8508L22.7395 22.4288L23.3245 22.0168L23.9085 21.6048L24.3885 21.2498L24.4835 18.6518L23.9085 18.6328L23.4005 18.6128ZM7.44953 13.7138H7.51653L7.52653 10.8958L7.90953 10.6558L8.36953 10.3788L8.83953 10.1008L9.28953 9.80284L9.75953 9.52484L10.2195 9.23784L10.6795 8.95984L11.1395 8.68184L11.5995 8.39384L12.0695 8.11584L12.0795 8.10584L12.5205 8.36584L12.9905 8.62384L13.9105 9.16084L14.3705 9.41984L14.8405 9.67884L15.2905 9.94684L15.7415 10.1968L15.7615 10.1578L16.2215 9.33384L15.7615 9.06484L15.2915 8.80584L14.8405 8.54784L14.3705 8.28784L13.9105 8.01084L13.4505 7.75184L12.9905 7.49284L12.5205 7.23384L12.0705 6.97484L12.0505 6.96484L11.6005 7.23484L11.1405 7.52184L10.6805 7.79984L10.2205 8.08684L9.76053 8.36484L9.29053 8.64284L8.83953 8.93084L8.36953 9.20884L7.90953 9.49684L7.44953 9.78384L6.98953 10.0618L6.53953 10.3398L6.51953 13.7048H6.98953L7.44953 13.7138Z" fill="white"/>
<path d="M25.4682 11.126L25.2382 10.944L24.9902 10.743L24.7502 10.551L24.5102 10.359L24.2702 10.159L24.0302 9.976L23.7822 9.784L23.5422 9.583L23.2922 9.391L23.1202 9.247L23.0532 9.324L22.8132 9.621L22.5642 9.928L22.5072 10.014L22.5642 10.081L22.8142 10.283L23.0542 10.474L23.2932 10.685L23.5422 10.887L23.7822 11.087L24.0312 11.299L24.2712 11.5L24.3862 11.596L24.3962 16.13L24.2712 16.207L24.0312 16.37L23.7812 16.514L23.5422 16.677L23.2922 16.82L23.0532 16.983L22.8132 17.127L22.5642 17.29L22.3242 17.434L22.0842 17.597L21.8452 17.741L21.6052 17.904L21.3562 18.047L21.1162 18.21L20.8772 18.354L20.6372 18.517L20.3882 18.661L20.6382 19.044L20.8782 19.437L20.9252 19.504L21.1172 19.38L21.3572 19.226L21.6062 19.083L21.8462 18.929L22.0852 18.776L22.3252 18.623L22.5652 18.479L22.8132 18.325L23.0532 18.182L23.2932 18.028L23.5422 17.875L23.7822 17.721L24.0312 17.578L24.2712 17.424L24.5112 17.281L24.7502 17.127L24.9902 16.974L25.2392 16.82L25.4792 16.677L25.4682 11.126ZM17.5702 13.83V15.795L17.6472 15.765L17.9632 15.632L18.2892 15.507L18.6052 15.373L18.9312 15.248L19.2572 15.114L19.5732 14.98L19.8992 14.855L20.2252 14.721L20.5422 14.596L20.8672 14.462L21.1842 14.338V8.394L20.8202 8.174L20.4462 7.963L20.0812 7.743L19.7082 7.522L19.3342 7.311L18.9602 7.091L18.5962 6.87L18.2312 6.66L17.8572 6.439L17.4842 6.219L17.1102 6.007L16.7452 5.787L16.3812 5.567L16.0072 5.355L15.8162 5.25L15.6342 5.336L15.2602 5.547L14.8952 5.739L14.5312 5.94L14.1572 6.151L13.7832 6.343L13.4102 6.544L13.7832 6.764L14.1572 6.975L14.3872 7.11L14.5312 7.043L14.8952 6.841L15.2602 6.65L15.6342 6.458L15.7872 6.381L16.0072 6.506L16.3812 6.726L17.1102 7.148L17.8572 7.589L18.2312 7.799L18.9602 8.241L19.3342 8.451L20.0812 8.893L20.1962 8.95V13.331H17.5792" fill="white"/>
<path d="M17.5715 15.7951L21.1855 14.3381L17.5615 13.3311M14.2455 15.7951V13.3691L10.9375 14.3571L14.2455 15.7851" fill="white"/>
</g>
<defs>
<clipPath id="clip0_1905_3541">
<rect width="32" height="32" fill="white"/>
</clipPath>
</defs>
</svg>
