<svg width="124" height="32" viewBox="0 0 124 32" fill="none" xmlns="http://www.w3.org/2000/svg">
<path d="M48.3857 9.80102C47.0847 8.95918 45.7148 8.53826 44.276 8.53826C43.6025 8.53826 42.952 8.66837 42.3245 8.92857C41.7122 9.18878 41.2377 9.56378 40.901 10.0536C40.5643 10.5434 40.3959 11.0638 40.3959 11.6148C40.3959 12.0587 40.4724 12.4566 40.6255 12.8087C40.7938 13.1454 41.0158 13.4286 41.2913 13.6582C41.5668 13.8724 41.9112 14.0714 42.3245 14.2551C42.753 14.4235 43.6331 14.6607 44.9648 14.9668C46.2964 15.2577 47.2607 15.5638 47.8576 15.8852C48.4699 16.1913 48.929 16.5434 49.2352 16.9413C49.5566 17.3393 49.7938 17.7908 49.9469 18.2959C50.1153 18.801 50.1995 19.3673 50.1995 19.9949C50.1995 20.5306 50.1 21.0893 49.901 21.6709C49.702 22.2372 49.327 22.7959 48.776 23.3469C48.225 23.898 47.5438 24.3112 46.7326 24.5867C45.9367 24.8622 45.1408 25 44.3449 25C42.2479 25 40.3729 24.3724 38.7199 23.1173C38.5056 22.9796 38.3984 22.7653 38.3984 22.4745C38.3984 22.2755 38.475 22.0995 38.628 21.9464C38.7964 21.7781 38.9801 21.6939 39.179 21.6939C39.3474 21.6939 39.5005 21.7398 39.6382 21.8316C41.0311 22.9184 42.6 23.4617 44.3449 23.4617C45.5387 23.4617 46.5183 23.148 47.2836 22.5204C48.0643 21.8776 48.4546 21.0357 48.4546 19.9949C48.4546 19.6582 48.4163 19.3291 48.3398 19.0077C48.2632 18.6862 48.1025 18.3648 47.8576 18.0434C47.628 17.7066 47.2607 17.4082 46.7556 17.148C46.2505 16.8878 45.4775 16.6352 44.4367 16.3903C43.4112 16.1454 42.6918 15.9694 42.2785 15.8622C41.8653 15.7551 41.475 15.6173 41.1076 15.449C40.7403 15.2653 40.4418 15.0969 40.2122 14.9439C39.9979 14.7755 39.7836 14.5765 39.5694 14.3469C39.3704 14.102 39.179 13.7653 38.9954 13.3367C38.8117 12.8929 38.7199 12.3189 38.7199 11.6148C38.7199 10.9719 38.8653 10.3673 39.1561 9.80102C39.4469 9.23469 39.8449 8.7449 40.35 8.33163C40.8704 7.90306 41.4673 7.57398 42.1408 7.34439C42.8296 7.1148 43.5413 7 44.276 7C46.0515 7 47.7122 7.49745 49.2581 8.49235C49.503 8.66071 49.6255 8.88265 49.6255 9.15816C49.6255 9.35714 49.5413 9.54082 49.3729 9.70918C49.2199 9.86224 49.0438 9.93877 48.8449 9.93877C48.6612 9.93877 48.5081 9.89286 48.3857 9.80102Z" fill="white"/>
<path d="M59.0154 23.4617C59.5664 23.4617 60.1404 23.3699 60.7374 23.1862C61.3496 22.9872 61.9619 22.6276 62.5741 22.1071C63.1863 21.5867 63.6455 20.9515 63.9517 20.2015C64.2731 19.4362 64.4338 18.6862 64.4338 17.9515C64.4338 17.2168 64.296 16.5204 64.0205 15.8622C63.745 15.1888 63.3547 14.5995 62.8496 14.0944C62.3598 13.574 61.7782 13.176 61.1047 12.9005C60.4465 12.6097 59.7501 12.4643 59.0154 12.4643C58.296 12.4643 57.5996 12.6097 56.9261 12.9005C56.268 13.176 55.6863 13.574 55.1812 14.0944C54.6914 14.5995 54.3011 15.1888 54.0103 15.8622C53.7348 16.5204 53.5971 17.2168 53.5971 17.9515C53.5971 18.6862 53.7348 19.3903 54.0103 20.0638C54.3011 20.7372 54.6914 21.3342 55.1812 21.8546C55.6863 22.3597 56.268 22.7577 56.9261 23.0485C57.5996 23.324 58.296 23.4617 59.0154 23.4617ZM59.0154 25C58.0664 25 57.1481 24.8163 56.2603 24.449C55.3879 24.0816 54.6226 23.5765 53.9644 22.9337C53.3062 22.2908 52.7858 21.5408 52.4032 20.6837C52.0358 19.8112 51.8522 18.9005 51.8522 17.9515C51.8522 17.0179 52.0358 16.1224 52.4032 15.2653C52.7858 14.3929 53.3062 13.6352 53.9644 12.9923C54.6226 12.3495 55.3879 11.8444 56.2603 11.477C57.1481 11.1097 58.0664 10.926 59.0154 10.926C59.9644 10.926 60.8751 11.1097 61.7476 11.477C62.6353 11.8444 63.4083 12.3495 64.0664 12.9923C64.7246 13.6352 65.2374 14.3929 65.6047 15.2653C65.9874 16.1224 66.1787 17.0179 66.1787 17.9515C66.1787 18.9005 65.9874 19.8112 65.6047 20.6837C65.2374 21.5408 64.7246 22.2908 64.0664 22.9337C63.4083 23.5765 62.6353 24.0816 61.7476 24.449C60.8751 24.8163 59.9644 25 59.0154 25Z" fill="white"/>
<path d="M68.4769 23.9439V8.05612C68.4769 7.82653 68.5611 7.62755 68.7295 7.45918C68.8979 7.29082 69.0968 7.20663 69.3264 7.20663C69.556 7.20663 69.755 7.29082 69.9234 7.45918C70.0917 7.62755 70.1759 7.82653 70.1759 8.05612V23.9439C70.1759 24.1735 70.0917 24.3724 69.9234 24.5408C69.755 24.7092 69.556 24.7934 69.3264 24.7934C69.0968 24.7934 68.8979 24.7092 68.7295 24.5408C68.5611 24.3724 68.4769 24.1735 68.4769 23.9439Z" fill="white"/>
<path d="M84.625 12.3265L79.0459 24.2883C78.9846 24.4413 78.8775 24.5638 78.7244 24.6556C78.5714 24.7474 78.4183 24.7934 78.2653 24.7934C78.1122 24.7934 77.9591 24.7474 77.8061 24.6556C77.653 24.5638 77.5459 24.4413 77.4846 24.2883L71.9056 12.3265C71.7984 12.1276 71.7831 11.9209 71.8597 11.7066C71.9515 11.477 72.0969 11.3087 72.2959 11.2015C72.4949 11.1097 72.7015 11.1097 72.9158 11.2015C73.1454 11.2781 73.3137 11.4235 73.4209 11.6378L78.2653 22.2219L83.1097 11.6378C83.2168 11.4235 83.3775 11.2781 83.5918 11.2015C83.8214 11.1097 84.0357 11.1097 84.2347 11.2015C84.4336 11.3087 84.5714 11.477 84.6479 11.7066C84.7398 11.9209 84.7321 12.1276 84.625 12.3265Z" fill="white"/>
<path d="M86.3465 23.9439V11.9821C86.3465 11.7526 86.4307 11.5536 86.5991 11.3852C86.7675 11.2168 86.9664 11.1327 87.196 11.1327C87.4256 11.1327 87.6246 11.2168 87.793 11.3852C87.9613 11.5536 88.0455 11.7526 88.0455 11.9821V23.9439C88.0455 24.1735 87.9613 24.3724 87.793 24.5408C87.6246 24.7092 87.4256 24.7934 87.196 24.7934C86.9664 24.7934 86.7675 24.7092 86.5991 24.5408C86.4307 24.3724 86.3465 24.1735 86.3465 23.9439ZM86.0251 8.17092C86.0251 7.84949 86.1399 7.57398 86.3695 7.34439C86.5991 7.1148 86.8746 7 87.196 7C87.5175 7 87.793 7.1148 88.0226 7.34439C88.2521 7.57398 88.3669 7.84949 88.3669 8.17092C88.3669 8.49235 88.2521 8.76786 88.0226 8.99745C87.793 9.22704 87.5175 9.34184 87.196 9.34184C86.8746 9.34184 86.5991 9.22704 86.3695 8.99745C86.1399 8.76786 86.0251 8.49235 86.0251 8.17092Z" fill="white"/>
<path d="M101.301 11.1327C101.53 11.1327 101.729 11.2168 101.898 11.3852C102.066 11.5536 102.15 11.7526 102.15 11.9821V23.9439C102.15 24.1735 102.066 24.3724 101.898 24.5408C101.729 24.7092 101.53 24.7934 101.301 24.7934C101.071 24.7934 100.872 24.7092 100.704 24.5408C100.535 24.3724 100.451 24.1735 100.451 23.9439V22.3597H100.405C100.176 22.8342 99.7854 23.301 99.2344 23.7602C98.6986 24.2041 98.1323 24.5179 97.5354 24.7015C96.9537 24.9005 96.4333 25 95.9742 25C95.1935 25 94.4741 24.8699 93.816 24.6097C93.1731 24.3495 92.6298 23.9898 92.1859 23.5306C91.742 23.0561 91.3976 22.4898 91.1527 21.8316C90.9231 21.1735 90.8083 20.4617 90.8083 19.6964V11.9821C90.8083 11.7526 90.8925 11.5536 91.0609 11.3852C91.2293 11.2168 91.4282 11.1327 91.6578 11.1327C91.8874 11.1327 92.0864 11.2168 92.2548 11.3852C92.4231 11.5536 92.5073 11.7526 92.5073 11.9821V19.6964C92.5073 20.3852 92.6374 21.0051 92.8976 21.5561C93.1578 22.1071 93.5558 22.5663 94.0915 22.9337C94.6425 23.301 95.316 23.4847 96.1119 23.4847C96.4946 23.4847 96.9155 23.4158 97.3747 23.2781C97.8492 23.1403 98.3389 22.8801 98.844 22.4974C99.3645 22.1148 99.7624 21.6556 100.038 21.1199C100.313 20.5689 100.451 20.0332 100.451 19.5128V11.9821C100.451 11.7526 100.535 11.5536 100.704 11.3852C100.872 11.2168 101.071 11.1327 101.301 11.1327Z" fill="white"/>
<path d="M106.61 11.9821V12.9694H106.656C107.069 12.2347 107.559 11.7143 108.125 11.4082C108.692 11.0867 109.266 10.926 109.847 10.926C111.531 10.926 112.847 11.6531 113.796 13.1071C114.225 12.4643 114.784 11.9439 115.472 11.5459C116.161 11.1327 116.896 10.926 117.676 10.926C118.947 10.926 120.003 11.3469 120.845 12.1888C121.702 13.0306 122.131 14.0944 122.131 15.3801V23.9439C122.131 24.1735 122.046 24.3724 121.878 24.5408C121.71 24.7092 121.511 24.7934 121.281 24.7934C121.051 24.7934 120.853 24.7092 120.684 24.5408C120.516 24.3724 120.432 24.1735 120.432 23.9439V15.3801C120.432 14.9362 120.332 14.4923 120.133 14.0485C119.934 13.6046 119.59 13.2296 119.1 12.9235C118.61 12.602 118.059 12.4413 117.447 12.4413C116.59 12.4413 115.863 12.7551 115.266 13.3827C114.669 13.9949 114.37 14.7372 114.37 15.6097V23.9439C114.37 24.1735 114.286 24.3724 114.118 24.5408C113.949 24.7092 113.75 24.7934 113.521 24.7934C113.291 24.7934 113.092 24.7092 112.924 24.5408C112.756 24.3724 112.671 24.1735 112.671 23.9439V15.6097C112.671 14.9821 112.511 14.4235 112.189 13.9337C111.883 13.4286 111.508 13.0536 111.064 12.8087C110.636 12.5638 110.154 12.4413 109.618 12.4413C109.021 12.4413 108.47 12.6173 107.965 12.9694C107.46 13.3061 107.108 13.7194 106.909 14.2092C106.71 14.6837 106.61 15.1122 106.61 15.4949V23.9439C106.61 24.1735 106.526 24.3724 106.358 24.5408C106.189 24.7092 105.99 24.7934 105.761 24.7934C105.531 24.7934 105.332 24.7092 105.164 24.5408C104.995 24.3724 104.911 24.1735 104.911 23.9439V11.9821C104.911 11.7526 104.995 11.5536 105.164 11.3852C105.332 11.2168 105.531 11.1327 105.761 11.1327C105.99 11.1327 106.189 11.2168 106.358 11.3852C106.526 11.5536 106.61 11.7526 106.61 11.9821Z" fill="white"/>
<mask id="mask0_1902_1287" style="mask-type:luminance" maskUnits="userSpaceOnUse" x="1" y="4" width="25" height="27">
<path d="M1.5625 4.44409H25.8331V30.9474H1.5625V4.44409Z" fill="white"/>
</mask>
<g mask="url(#mask0_1902_1287)">
<mask id="mask1_1902_1287" style="mask-type:luminance" maskUnits="userSpaceOnUse" x="-2" y="-3" width="38" height="38">
<path d="M-1.55078 5.21113L27.9432 -2.29712L35.2572 26.6693L5.7632 34.1776L-1.55078 5.21113Z" fill="white"/>
</mask>
<g mask="url(#mask1_1902_1287)">
<mask id="mask2_1902_1287" style="mask-type:luminance" maskUnits="userSpaceOnUse" x="-2" y="-3" width="38" height="38">
<path d="M28.0057 -2.3125L-1.48828 5.19506L5.8257 34.1615L35.3197 26.654L28.0057 -2.3125Z" fill="white"/>
</mask>
<g mask="url(#mask2_1902_1287)">
<path d="M2.13156 19.5606C4.26991 27.4844 12.3873 32.3224 20.3414 30.4235C20.886 30.2914 21.4182 30.1372 21.9358 29.9482C26.2333 28.4133 27.207 22.7936 23.6361 19.9442C22.1573 18.763 20.1241 17.7485 17.7152 16.6153C16.1519 15.8718 14.5284 15.1124 13.0551 14.2265C7.91479 11.1526 6.52244 7.15664 6.19511 4.61707C4.2097 13.9874 12.1936 17.9764 17.5332 21.7882C20.9961 24.2611 18.8155 27.4642 12.5797 26.1698C6.21657 24.8454 1.68867 17.8069 2.71909 9.80183C1.50805 12.7903 1.22432 16.1914 2.13156 19.5606Z" fill="white"/>
</g>
</g>
</g>
<mask id="mask3_1902_1287" style="mask-type:luminance" maskUnits="userSpaceOnUse" x="9" y="2" width="24" height="25">
<path d="M9.25781 2.52625H32.8198V26.7172H9.25781V2.52625Z" fill="white"/>
</mask>
<g mask="url(#mask3_1902_1287)">
<mask id="mask4_1902_1287" style="mask-type:luminance" maskUnits="userSpaceOnUse" x="-1" y="-1" width="37" height="37">
<path d="M-0.9375 6.8509L28.5565 -0.657349L35.8704 28.3091L6.37648 35.8174L-0.9375 6.8509Z" fill="white"/>
</mask>
<g mask="url(#mask4_1902_1287)">
<mask id="mask5_1902_1287" style="mask-type:luminance" maskUnits="userSpaceOnUse" x="-1" y="-1" width="37" height="37">
<path d="M28.619 -0.672729L-0.875 6.83483L6.43898 35.8013L35.9329 28.2937L28.619 -0.672729Z" fill="white"/>
</mask>
<g mask="url(#mask5_1902_1287)">
<path d="M15.0111 13.5955C20.8324 17.0759 29.6536 18.8595 29.4667 26.5491C32.2334 22.9569 33.3808 18.1751 32.1843 13.4357C30.8286 8.06822 26.7893 4.08341 21.8683 2.57495C24.2482 5.65718 25.507 10.0221 20.9694 11.1769C16.9335 12.2045 11.3136 9.34738 9.38011 4.22793C9.36281 4.35787 8.56145 9.73857 15.0111 13.5955Z" fill="white"/>
</g>
</g>
</g>
<mask id="mask6_1902_1287" style="mask-type:luminance" maskUnits="userSpaceOnUse" x="15" y="2" width="7" height="6">
<path d="M15.7305 2.48743H21.0452V7.82366H15.7305V2.48743Z" fill="white"/>
</mask>
<g mask="url(#mask6_1902_1287)">
<mask id="mask7_1902_1287" style="mask-type:luminance" maskUnits="userSpaceOnUse" x="-2" y="-3" width="38" height="38">
<path d="M-1.55078 5.21113L27.9432 -2.29712L35.2572 26.6693L5.7632 34.1776L-1.55078 5.21113Z" fill="white"/>
</mask>
<g mask="url(#mask7_1902_1287)">
<mask id="mask8_1902_1287" style="mask-type:luminance" maskUnits="userSpaceOnUse" x="-2" y="-3" width="38" height="38">
<path d="M28.0057 -2.3125L-1.48828 5.19506L5.8257 34.1615L35.3197 26.654L28.0057 -2.3125Z" fill="white"/>
</mask>
<g mask="url(#mask8_1902_1287)">
<path d="M15.8186 5.76761C15.8608 5.93506 15.919 6.09626 15.993 6.25259C16.0671 6.40823 16.155 6.55484 16.2581 6.69311C16.3605 6.83207 16.476 6.95853 16.6034 7.07387C16.7314 7.18991 16.8691 7.29135 17.0165 7.37959C17.1639 7.46784 17.3189 7.54149 17.4809 7.59916C17.6428 7.65683 17.8089 7.69782 17.9791 7.72284C18.1494 7.74716 18.3203 7.75549 18.4919 7.74646C18.6635 7.73743 18.8324 7.71172 18.9992 7.66934C19.1659 7.62695 19.3265 7.56859 19.4815 7.49424C19.6372 7.41989 19.7832 7.33165 19.9209 7.22812C20.0586 7.12529 20.1853 7.00925 20.3002 6.88141C20.415 6.75286 20.5168 6.6146 20.6047 6.4666C20.6925 6.31791 20.7652 6.16296 20.8226 6.00037C20.8801 5.83778 20.9216 5.67103 20.9458 5.5001C20.9707 5.32917 20.979 5.15755 20.97 4.98524C20.961 4.81292 20.9354 4.64338 20.8932 4.47593C20.851 4.30848 20.7929 4.14728 20.7188 3.99164C20.6448 3.83531 20.5569 3.6887 20.4538 3.55043C20.3507 3.41216 20.2358 3.28501 20.1078 3.16967C19.9804 3.05363 19.8427 2.95219 19.6953 2.86394C19.5472 2.7757 19.3929 2.70275 19.2303 2.64508C19.0684 2.5874 18.9023 2.54572 18.7327 2.5207C18.5625 2.49638 18.3916 2.48805 18.2199 2.49708C18.0483 2.50611 17.8795 2.53182 17.7127 2.5742C17.5459 2.61659 17.3854 2.67495 17.2297 2.7493C17.0746 2.82364 16.9286 2.91189 16.7902 3.01542C16.6525 3.11825 16.5266 3.23428 16.4117 3.36213C16.2961 3.49067 16.1951 3.62894 16.1072 3.77694C16.0186 3.92563 15.946 4.08058 15.8885 4.24317C15.8311 4.40645 15.7903 4.57321 15.7653 4.74344C15.7411 4.91436 15.7328 5.08599 15.7418 5.2583C15.7508 5.43062 15.7764 5.60015 15.8186 5.76761Z" fill="white"/>
</g>
</g>
</g>
</svg>
