<svg width="124" height="32" viewBox="0 0 124 32" fill="none" xmlns="http://www.w3.org/2000/svg">
<path d="M38.3984 21.256H40.5584C40.5584 22.456 41.4704 23.176 42.9584 23.176C44.5424 23.176 45.4544 22.528 45.4544 21.448C45.4544 20.656 45.0704 20.176 43.8464 19.864L41.7824 19.384C39.6944 18.88 38.7104 17.848 38.7104 16.12C38.7104 13.96 40.5344 12.592 43.1264 12.592C45.6944 12.592 47.3744 14.032 47.4224 16.264H45.2624C45.2144 15.088 44.4224 14.344 43.0544 14.344C41.6384 14.344 40.8464 14.968 40.8464 16.048C40.8464 16.84 41.4224 17.368 42.5744 17.656L44.6384 18.16C46.6304 18.64 47.6144 19.552 47.6144 21.304C47.6144 23.536 45.6944 24.952 42.9104 24.952C40.1504 24.952 38.3984 23.488 38.3984 21.256Z" fill="white"/>
<path d="M49.3483 18.784C49.3483 15.16 51.9403 12.616 55.4683 12.616C58.9722 12.616 61.5643 15.16 61.5643 18.784C61.5643 22.408 58.9722 24.952 55.4683 24.952C51.9403 24.952 49.3483 22.408 49.3483 18.784ZM51.6283 18.784C51.6283 21.232 53.1883 22.936 55.4683 22.936C57.7243 22.936 59.3083 21.232 59.3083 18.784C59.3083 16.336 57.7243 14.632 55.4683 14.632C53.1883 14.632 51.6283 16.336 51.6283 18.784Z" fill="white"/>
<path d="M66.3656 24.664H64.1096V7H66.3656V24.664Z" fill="white"/>
<path d="M72.9746 24.664L68.2466 12.928H70.6466L73.2146 19.48C73.6226 20.584 73.9586 21.568 74.1506 22.288C74.3426 21.52 74.7266 20.512 75.1346 19.48L77.7506 12.928H80.1026L75.2066 24.664H72.9746Z" fill="white"/>
<path d="M83.0015 10.144C82.1855 10.144 81.5135 9.472 81.5135 8.656C81.5135 7.816 82.1855 7.168 83.0015 7.168C83.8175 7.168 84.4895 7.816 84.4895 8.656C84.4895 9.472 83.8175 10.144 83.0015 10.144ZM81.8975 24.664V12.928H84.1535V24.664H81.8975Z" fill="white"/>
<path d="M94.8142 12.928H97.0462V24.664H95.0302L94.7902 22.888C94.1182 24.112 92.5582 24.952 90.8302 24.952C88.0942 24.952 86.5582 23.104 86.5582 20.224V12.928H88.8142V19.48C88.8142 22 89.8942 22.96 91.6222 22.96C93.6862 22.96 94.8142 21.64 94.8142 19.12V12.928Z" fill="white"/>
<path d="M102.575 24.664H100.319V12.928H102.335L102.551 14.464C103.151 13.36 104.399 12.592 106.055 12.592C107.879 12.592 109.175 13.504 109.775 14.968C110.327 13.504 111.743 12.592 113.567 12.592C116.255 12.592 117.887 14.272 117.887 16.984V24.664H115.679V17.536C115.679 15.688 114.647 14.632 113.063 14.632C111.359 14.632 110.231 15.832 110.231 17.704V24.664H107.999V17.512C107.999 15.664 106.991 14.656 105.407 14.656C103.703 14.656 102.575 15.832 102.575 17.704V24.664Z" fill="white"/>
<mask id="mask0_1928_1206" style="mask-type:luminance" maskUnits="userSpaceOnUse" x="1" y="4" width="25" height="27">
<path d="M1.5625 4.44409H25.8331V30.9474H1.5625V4.44409Z" fill="white"/>
</mask>
<g mask="url(#mask0_1928_1206)">
<mask id="mask1_1928_1206" style="mask-type:luminance" maskUnits="userSpaceOnUse" x="-2" y="-3" width="38" height="38">
<path d="M-1.55078 5.21113L27.9432 -2.29712L35.2572 26.6693L5.7632 34.1776L-1.55078 5.21113Z" fill="white"/>
</mask>
<g mask="url(#mask1_1928_1206)">
<mask id="mask2_1928_1206" style="mask-type:luminance" maskUnits="userSpaceOnUse" x="-2" y="-3" width="38" height="38">
<path d="M28.0057 -2.3125L-1.48828 5.19506L5.8257 34.1615L35.3197 26.654L28.0057 -2.3125Z" fill="white"/>
</mask>
<g mask="url(#mask2_1928_1206)">
<path d="M2.13156 19.5606C4.26991 27.4844 12.3873 32.3224 20.3414 30.4235C20.886 30.2914 21.4182 30.1372 21.9358 29.9482C26.2333 28.4133 27.207 22.7936 23.6361 19.9442C22.1573 18.763 20.1241 17.7485 17.7152 16.6153C16.1519 15.8718 14.5284 15.1124 13.0551 14.2265C7.91479 11.1526 6.52244 7.15664 6.19511 4.61707C4.2097 13.9874 12.1936 17.9764 17.5332 21.7882C20.9961 24.2611 18.8155 27.4642 12.5797 26.1698C6.21657 24.8454 1.68867 17.8069 2.71909 9.80183C1.50805 12.7903 1.22432 16.1914 2.13156 19.5606Z" fill="white"/>
</g>
</g>
</g>
<mask id="mask3_1928_1206" style="mask-type:luminance" maskUnits="userSpaceOnUse" x="9" y="2" width="24" height="25">
<path d="M9.25781 2.52625H32.8198V26.7172H9.25781V2.52625Z" fill="white"/>
</mask>
<g mask="url(#mask3_1928_1206)">
<mask id="mask4_1928_1206" style="mask-type:luminance" maskUnits="userSpaceOnUse" x="-1" y="-1" width="37" height="37">
<path d="M-0.9375 6.8509L28.5565 -0.657349L35.8704 28.3091L6.37648 35.8174L-0.9375 6.8509Z" fill="white"/>
</mask>
<g mask="url(#mask4_1928_1206)">
<mask id="mask5_1928_1206" style="mask-type:luminance" maskUnits="userSpaceOnUse" x="-1" y="-1" width="37" height="37">
<path d="M28.619 -0.672729L-0.875 6.83483L6.43898 35.8013L35.9329 28.2937L28.619 -0.672729Z" fill="white"/>
</mask>
<g mask="url(#mask5_1928_1206)">
<path d="M15.0111 13.5955C20.8324 17.0759 29.6536 18.8595 29.4667 26.5491C32.2334 22.9569 33.3808 18.1751 32.1843 13.4357C30.8286 8.06822 26.7893 4.08341 21.8683 2.57495C24.2482 5.65718 25.507 10.0221 20.9694 11.1769C16.9335 12.2045 11.3136 9.34738 9.38011 4.22793C9.36281 4.35787 8.56145 9.73857 15.0111 13.5955Z" fill="white"/>
</g>
</g>
</g>
<mask id="mask6_1928_1206" style="mask-type:luminance" maskUnits="userSpaceOnUse" x="15" y="2" width="7" height="6">
<path d="M15.7305 2.48743H21.0452V7.82366H15.7305V2.48743Z" fill="white"/>
</mask>
<g mask="url(#mask6_1928_1206)">
<mask id="mask7_1928_1206" style="mask-type:luminance" maskUnits="userSpaceOnUse" x="-2" y="-3" width="38" height="38">
<path d="M-1.55078 5.21113L27.9432 -2.29712L35.2572 26.6693L5.7632 34.1776L-1.55078 5.21113Z" fill="white"/>
</mask>
<g mask="url(#mask7_1928_1206)">
<mask id="mask8_1928_1206" style="mask-type:luminance" maskUnits="userSpaceOnUse" x="-2" y="-3" width="38" height="38">
<path d="M28.0057 -2.3125L-1.48828 5.19506L5.8257 34.1615L35.3197 26.654L28.0057 -2.3125Z" fill="white"/>
</mask>
<g mask="url(#mask8_1928_1206)">
<path d="M15.8186 5.76761C15.8608 5.93506 15.919 6.09626 15.993 6.25259C16.0671 6.40823 16.155 6.55484 16.2581 6.69311C16.3605 6.83207 16.476 6.95853 16.6034 7.07387C16.7314 7.18991 16.8691 7.29135 17.0165 7.37959C17.1639 7.46784 17.3189 7.54149 17.4809 7.59916C17.6428 7.65683 17.8089 7.69782 17.9791 7.72284C18.1494 7.74716 18.3203 7.75549 18.4919 7.74646C18.6635 7.73743 18.8324 7.71172 18.9992 7.66934C19.1659 7.62695 19.3265 7.56859 19.4815 7.49424C19.6372 7.41989 19.7832 7.33165 19.9209 7.22812C20.0586 7.12529 20.1853 7.00925 20.3002 6.88141C20.415 6.75286 20.5168 6.6146 20.6047 6.4666C20.6925 6.31791 20.7652 6.16296 20.8226 6.00037C20.8801 5.83778 20.9216 5.67103 20.9458 5.5001C20.9707 5.32917 20.979 5.15755 20.97 4.98524C20.961 4.81292 20.9354 4.64338 20.8932 4.47593C20.851 4.30848 20.7929 4.14728 20.7188 3.99164C20.6448 3.83531 20.5569 3.6887 20.4538 3.55043C20.3507 3.41216 20.2358 3.28501 20.1078 3.16967C19.9804 3.05363 19.8427 2.95219 19.6953 2.86394C19.5472 2.7757 19.3929 2.70275 19.2303 2.64508C19.0684 2.5874 18.9023 2.54572 18.7327 2.5207C18.5625 2.49638 18.3916 2.48805 18.2199 2.49708C18.0483 2.50611 17.8795 2.53182 17.7127 2.5742C17.5459 2.61659 17.3854 2.67495 17.2297 2.7493C17.0746 2.82364 16.9286 2.91189 16.7902 3.01542C16.6525 3.11825 16.5266 3.23428 16.4117 3.36213C16.2961 3.49067 16.1951 3.62894 16.1072 3.77694C16.0186 3.92563 15.946 4.08058 15.8885 4.24317C15.8311 4.40645 15.7903 4.57321 15.7653 4.74344C15.7411 4.91436 15.7328 5.08599 15.7418 5.2583C15.7508 5.43062 15.7764 5.60015 15.8186 5.76761Z" fill="white"/>
</g>
</g>
</g>
</svg>
