<svg width="32" height="32" viewBox="0 0 32 32" fill="none" xmlns="http://www.w3.org/2000/svg">
<g clip-path="url(#clip0_1905_3498)">
<path d="M16 32C24.8366 32 32 24.8366 32 16C32 7.16344 24.8366 0 16 0C7.16344 0 0 7.16344 0 16C0 24.8366 7.16344 32 16 32Z" fill="#FF007A"/>
<path d="M12.2613 5.76724C11.9763 5.72324 11.9643 5.71724 12.0983 5.69724C12.3553 5.65724 12.9633 5.71223 13.3823 5.81123C14.3593 6.04423 15.2483 6.63924 16.1983 7.69624L16.4503 7.97623L16.8103 7.91924C18.3303 7.67424 19.8773 7.86923 21.1703 8.46623C21.5263 8.63023 22.0873 8.95723 22.1573 9.04223C22.1803 9.06823 22.2213 9.24124 22.2483 9.42524C22.3443 10.0622 22.2963 10.5502 22.1023 10.9152C21.9963 11.1132 21.9903 11.1752 22.0613 11.3452C22.095 11.4155 22.1477 11.4748 22.2135 11.5165C22.2792 11.5582 22.3554 11.5807 22.4333 11.5812C22.7553 11.5812 23.1013 11.0612 23.2613 10.3382L23.3253 10.0512L23.4513 10.1942C24.1433 10.9782 24.6863 12.0472 24.7793 12.8072L24.8043 13.0062L24.6873 12.8262C24.4873 12.5162 24.2873 12.3042 24.0293 12.1332C23.5653 11.8262 23.0743 11.7222 21.7743 11.6532C20.6003 11.5912 19.9353 11.4912 19.2773 11.2762C18.1563 10.9112 17.5913 10.4242 16.2593 8.67724C15.6683 7.90124 15.3023 7.47223 14.9393 7.12723C14.1123 6.34123 13.3003 5.92924 12.2613 5.76724Z" fill="white"/>
<path d="M22.4227 7.50014C22.4527 6.98014 22.5227 6.63714 22.6647 6.32414C22.7207 6.20014 22.7737 6.09814 22.7817 6.09814C22.7728 6.16834 22.7543 6.23698 22.7267 6.30214C22.6237 6.60614 22.6067 7.02214 22.6777 7.50514C22.7677 8.11914 22.8197 8.20714 23.4677 8.87014C23.7727 9.18114 24.1267 9.57314 24.2547 9.74214L24.4877 10.0481L24.2547 9.82914C23.9697 9.56214 23.3137 9.03914 23.1687 8.96514C23.0717 8.91514 23.0567 8.91614 22.9967 8.97514C22.9417 9.03114 22.9297 9.11314 22.9227 9.50414C22.9107 10.1121 22.8277 10.5041 22.6267 10.8941C22.5187 11.1041 22.5017 11.0601 22.5997 10.8211C22.6727 10.6431 22.6797 10.5651 22.6797 9.97614C22.6797 8.79214 22.5387 8.50814 21.7137 8.02014C21.4654 7.8761 21.2105 7.74395 20.9497 7.62414C20.8208 7.57246 20.6959 7.51164 20.5757 7.44214C20.5987 7.41914 21.4027 7.65314 21.7257 7.77814C22.2077 7.96314 22.2867 7.98714 22.3457 7.96414C22.3847 7.94914 22.4037 7.83514 22.4227 7.50014ZM12.8157 9.52514C12.2367 8.72814 11.8787 7.50514 11.9557 6.59114L11.9797 6.30814L12.1117 6.33214C12.3597 6.37714 12.7867 6.53614 12.9867 6.65814C13.5347 6.99114 13.7727 7.43014 14.0137 8.55614C14.0847 8.88614 14.1777 9.25914 14.2207 9.38614C14.2887 9.58914 14.5487 10.0641 14.7607 10.3731C14.9127 10.5951 14.8107 10.7001 14.4747 10.6701C13.9607 10.6231 13.2647 10.1431 12.8157 9.52514ZM21.7207 15.4601C19.0137 14.3701 18.0607 13.4241 18.0607 11.8281C18.0607 11.5931 18.0687 11.4011 18.0777 11.4011C18.0877 11.4011 18.1927 11.4781 18.3107 11.5731C18.8597 12.0131 19.4747 12.2011 21.1757 12.4491C22.1767 12.5961 22.7407 12.7141 23.2607 12.8861C24.9127 13.4341 25.9347 14.5461 26.1787 16.0601C26.2487 16.5001 26.2077 17.3251 26.0927 17.7601C26.0027 18.1041 25.7257 18.7231 25.6527 18.7471C25.6327 18.7531 25.6127 18.6761 25.6067 18.5691C25.5787 18.0011 25.2917 17.4471 24.8087 17.0321C24.2597 16.5611 23.5237 16.1851 21.7207 15.4601ZM19.8207 15.9121C19.7887 15.719 19.745 15.528 19.6897 15.3401L19.6197 15.1341L19.7487 15.2781C19.9257 15.4781 20.0667 15.7321 20.1847 16.0721C20.2757 16.3311 20.2857 16.4081 20.2847 16.8291C20.2847 17.2431 20.2737 17.3291 20.1897 17.5631C20.0729 17.9063 19.8773 18.2172 19.6187 18.4711C19.1237 18.9751 18.4887 19.2531 17.5707 19.3691C17.4107 19.3891 16.9467 19.4231 16.5377 19.4441C15.5077 19.4981 14.8307 19.6081 14.2217 19.8221C14.1668 19.8468 14.1078 19.861 14.0477 19.8641C14.0237 19.8391 14.4377 19.5921 14.7807 19.4271C15.2637 19.1941 15.7437 19.0671 16.8207 18.8881C17.3527 18.7991 17.9027 18.6921 18.0417 18.6491C19.3597 18.2451 20.0377 17.2031 19.8207 15.9121Z" fill="white"/>
<path d="M21.0597 18.1161C20.6997 17.3431 20.6178 16.5961 20.8148 15.9001C20.8358 15.8261 20.8697 15.7651 20.8897 15.7651C20.9574 15.7896 21.0211 15.824 21.0788 15.8671C21.2448 15.9791 21.5767 16.1671 22.4618 16.6491C23.5667 17.2521 24.1967 17.7191 24.6257 18.2511C25.0007 18.7181 25.2327 19.2501 25.3447 19.8981C25.4077 20.2651 25.3708 21.1481 25.2768 21.5181C24.9798 22.6841 24.2888 23.6001 23.3048 24.1341C23.2119 24.1879 23.1157 24.2356 23.0168 24.2771C23.0028 24.2771 23.0548 24.1441 23.1338 23.9801C23.4638 23.2881 23.5028 22.6141 23.2518 21.8641C23.0988 21.4051 22.7858 20.8441 22.1548 19.8981C21.4208 18.7981 21.2407 18.5041 21.0597 18.1161ZM10.8927 22.2871C11.8977 21.4391 13.1468 20.8371 14.2858 20.6521C14.7758 20.5721 15.5938 20.6041 16.0478 20.7201C16.7758 20.9061 17.4278 21.3241 17.7668 21.8211C18.0968 22.3071 18.2397 22.7311 18.3867 23.6731C18.4467 24.0451 18.5097 24.4181 18.5287 24.5031C18.6387 24.9911 18.8558 25.3821 19.1238 25.5781C19.5488 25.8891 20.2818 25.9081 21.0018 25.6281C21.077 25.5936 21.1563 25.5687 21.2378 25.5541C21.2638 25.5801 20.9017 25.8231 20.6458 25.9511C20.3437 26.1128 20.0053 26.1947 19.6628 26.1891C19.0028 26.1891 18.4547 25.8541 17.9977 25.1691C17.9077 25.0341 17.7058 24.6311 17.5478 24.2721C17.0658 23.1721 16.8277 22.8361 16.2677 22.4691C15.7787 22.1491 15.1498 22.0921 14.6768 22.3241C14.0548 22.6291 13.8817 23.4241 14.3267 23.9271C14.5037 24.1271 14.8338 24.3001 15.1038 24.3331C15.2215 24.3487 15.3413 24.3389 15.4549 24.3042C15.5686 24.2696 15.6735 24.2109 15.7625 24.1322C15.8515 24.0535 15.9226 23.9566 15.9709 23.8481C16.0193 23.7396 16.0438 23.6219 16.0427 23.5031C16.0427 23.1711 15.9148 22.9831 15.5948 22.8381C15.1578 22.6411 14.6877 22.8711 14.6897 23.2821C14.6907 23.4571 14.7667 23.5671 14.9427 23.6471C15.0557 23.6971 15.0577 23.7021 14.9657 23.6831C14.5647 23.5991 14.4707 23.1161 14.7937 22.7951C15.1807 22.4091 15.9818 22.5791 16.2568 23.1051C16.3728 23.3261 16.3857 23.7671 16.2847 24.0331C16.0598 24.6281 15.4017 24.9401 14.7347 24.7701C14.2807 24.6541 14.0957 24.5291 13.5487 23.9651C12.5977 22.9851 12.2288 22.7951 10.8568 22.5811L10.5938 22.5401L10.8938 22.2871H10.8927Z" fill="white"/>
<path fill-rule="evenodd" clip-rule="evenodd" d="M6.19531 3.35003L6.29131 3.46704C9.99931 8.00704 11.9153 10.363 12.0373 10.531C12.2373 10.809 12.1623 11.058 11.8183 11.254C11.6273 11.363 11.2333 11.473 11.0373 11.473C10.8143 11.473 10.5633 11.366 10.3803 11.193C10.2513 11.07 9.73031 10.292 8.52731 8.42504C7.96397 7.54263 7.39328 6.66493 6.81531 5.79203C6.76631 5.74603 6.76731 5.74704 8.43331 8.72803C9.47931 10.6 9.83331 11.261 9.83331 11.35C9.83331 11.53 9.78331 11.624 9.56131 11.872C9.19131 12.285 9.02631 12.749 8.90631 13.709C8.77231 14.786 8.39631 15.546 7.35231 16.847C6.74231 17.609 6.64231 17.749 6.48731 18.056C6.29331 18.442 6.24031 18.659 6.21831 19.147C6.19531 19.663 6.24031 19.997 6.39831 20.49C6.53631 20.922 6.68031 21.208 7.04831 21.778C7.36631 22.271 7.54931 22.637 7.54931 22.78C7.54931 22.894 7.57131 22.894 8.06431 22.783C9.24331 22.517 10.2003 22.048 10.7393 21.474C11.0723 21.119 11.1503 20.923 11.1533 20.436C11.1543 20.118 11.1433 20.051 11.0573 19.868C10.9173 19.57 10.6623 19.322 10.1003 18.938C9.36331 18.434 9.04931 18.028 8.96231 17.471C8.89031 17.014 8.97331 16.691 9.38131 15.837C9.80231 14.953 9.90731 14.577 9.97831 13.686C10.0233 13.11 10.0863 12.883 10.2523 12.701C10.4243 12.511 10.5803 12.446 11.0073 12.388C11.7033 12.293 12.1463 12.113 12.5103 11.778C12.8263 11.486 12.9583 11.205 12.9783 10.783L12.9943 10.463L12.8173 10.257C12.5633 9.96104 10.4623 7.64303 6.51331 3.30104L6.40731 3.18604L6.19531 3.35104V3.35003ZM7.90931 19.732C7.97908 19.6085 7.99991 19.4633 7.96769 19.3251C7.93546 19.187 7.85253 19.0659 7.73531 18.986C7.50731 18.834 7.15231 18.906 7.15231 19.104C7.15231 19.164 7.18531 19.208 7.26031 19.247C7.38731 19.312 7.39631 19.386 7.29731 19.535C7.19631 19.687 7.20431 19.821 7.32031 19.912C7.50631 20.058 7.76931 19.977 7.90931 19.732ZM13.4333 12.556C13.1063 12.656 12.7893 13.003 12.6903 13.366C12.6303 13.587 12.6643 13.976 12.7543 14.096C12.8993 14.29 13.0403 14.341 13.4203 14.338C14.1643 14.333 14.8103 14.014 14.8863 13.615C14.9483 13.288 14.6633 12.835 14.2723 12.635C14.0703 12.533 13.6413 12.492 13.4333 12.556ZM14.3033 13.236C14.4183 13.073 14.3673 12.896 14.1733 12.778C13.8013 12.551 13.2393 12.738 13.2393 13.09C13.2393 13.264 13.5323 13.455 13.8003 13.455C13.9803 13.455 14.2243 13.348 14.3033 13.236Z" fill="white"/>
</g>
<defs>
<clipPath id="clip0_1905_3498">
<rect width="32" height="32" fill="white"/>
</clipPath>
</defs>
</svg>
