<svg width="57" height="41" viewBox="0 0 57 41" fill="none" xmlns="http://www.w3.org/2000/svg">
<path d="M28.5021 38.5601C38.7084 38.5601 46.9184 30.5089 46.9184 20.5C46.9184 10.4911 38.7084 2.43994 28.5021 2.43994C18.2959 2.43994 10.0859 10.4911 10.0859 20.5C10.0859 30.5089 18.2959 38.5601 28.5021 38.5601Z" fill="#2775CA"/>
<path d="M33.5651 23.3589C33.5651 20.7258 31.9537 19.8228 28.7308 19.4453C26.4288 19.1437 25.9684 18.5423 25.9684 17.4894C25.9684 16.4365 26.7364 15.7592 28.2704 15.7592C29.6516 15.7592 30.4196 16.2107 30.8026 17.3395C30.88 17.5653 31.1102 17.7152 31.3404 17.7152H32.5688C32.8763 17.7152 33.1065 17.4894 33.1065 17.1878V17.1119C32.799 15.4558 31.4178 14.1772 29.6535 14.0273V12.2213C29.6535 11.9197 29.4233 11.6939 29.0402 11.6199H27.8892C27.5817 11.6199 27.3515 11.8456 27.2759 12.2213V13.9514C24.9739 14.253 23.5154 15.7574 23.5154 17.6393C23.5154 20.1226 25.0494 21.1014 28.2723 21.4771C30.4214 21.8527 31.112 22.3042 31.112 23.5088C31.112 24.7134 30.0384 25.5406 28.5798 25.5406C26.5853 25.5406 25.8947 24.7134 25.6645 23.5847C25.5872 23.2831 25.357 23.1332 25.1268 23.1332H23.8229C23.5154 23.1332 23.2852 23.3589 23.2852 23.6605V23.7364C23.5927 25.6182 24.8192 26.9727 27.3515 27.3484V29.1544C27.3515 29.456 27.5817 29.6818 27.9647 29.7558H29.1157C29.4233 29.7558 29.6535 29.5301 29.729 29.1544V27.3484C32.0292 26.9709 33.5651 25.3907 33.5651 23.3589Z" fill="white"/>
<path d="M24.589 31.2602C18.6038 29.1526 15.5338 22.6058 17.7603 16.8122C18.9113 13.6516 21.4435 11.2442 24.589 10.1155C24.8966 9.96558 25.0494 9.73983 25.0494 9.36237V8.30947C25.0494 8.00787 24.8966 7.78212 24.589 7.70807C24.5117 7.70807 24.3588 7.70807 24.2815 7.78392C16.9923 10.0414 13.0015 17.6411 15.3036 24.7911C16.6848 29.0045 19.985 32.2409 24.2815 33.5954C24.589 33.7453 24.8947 33.5954 24.9721 33.2938C25.0494 33.2179 25.0494 33.1439 25.0494 32.9922V31.9393C25.0494 31.7117 24.8192 31.4119 24.589 31.2602ZM32.7216 7.78212C32.4141 7.63222 32.1084 7.78212 32.031 8.08372C31.9537 8.15957 31.9537 8.23362 31.9537 8.38532V9.43822C31.9537 9.73983 32.1839 10.0396 32.4141 10.1913C38.3993 12.2989 41.4693 18.8457 39.2428 24.6394C38.0918 27.7999 35.5596 30.2073 32.4141 31.3361C32.1065 31.486 31.9537 31.7117 31.9537 32.0892V33.1421C31.9537 33.4437 32.1065 33.6694 32.4141 33.7435C32.4914 33.7435 32.6443 33.7435 32.7216 33.6676C40.0108 31.4101 44.0015 23.8104 41.6995 16.6605C40.3183 12.373 36.9426 9.13662 32.7216 7.78212Z" fill="white"/>
</svg>
