<svg width="40" height="35" viewBox="0 0 40 35" fill="none" xmlns="http://www.w3.org/2000/svg">
<g clip-path="url(#clip0_175_24644)">
<path d="M32.5916 0.473171H7.93187L0.761719 15.7677L20.2617 34.5268L39.7617 15.7677L32.5916 0.473171Z" fill="#53AE94"/>
<path d="M22.9703 12.657V9.68868H29.7723V5.16616H11.2507V9.68868H18.0532V12.6547C12.5246 12.9076 8.36719 14.0007 8.36719 15.3095C8.36719 16.6183 12.5265 17.7111 18.0532 17.967V27.4746H22.9727V17.9653C28.4912 17.7111 32.6398 16.6193 32.6398 15.3114C32.6398 14.0036 28.4912 12.9119 22.9727 12.6578M22.9727 17.1601V17.1575C22.834 17.1663 22.1209 17.2091 20.5334 17.2091C19.2642 17.2091 18.3711 17.1731 18.0569 17.1567V17.1608C13.1712 16.9448 9.52549 16.096 9.52549 15.0804C9.52549 14.0649 13.172 13.2172 18.0556 13.001V16.3151C18.3756 16.3371 19.2905 16.391 20.5533 16.391C22.0702 16.391 22.8329 16.328 22.9727 16.3151V13.001C27.8477 13.2176 31.485 14.0672 31.485 15.0793C31.485 16.0914 27.8459 16.9413 22.9727 17.1579" fill="white"/>
</g>
<defs>
<clipPath id="clip0_175_24644">
<rect width="39" height="34.0537" fill="white" transform="translate(0.761719 0.473171)"/>
</clipPath>
</defs>
</svg>
