<svg width="32" height="32" viewBox="0 0 32 32" fill="none" xmlns="http://www.w3.org/2000/svg">
<g clip-path="url(#clip0_1905_3471)">
<path d="M16 32C24.8366 32 32 24.8366 32 16C32 7.16344 24.8366 0 16 0C7.16344 0 0 7.16344 0 16C0 24.8366 7.16344 32 16 32Z" fill="#201A2D"/>
<path d="M22.8187 9.58619L22.2187 10.1862C23.6504 11.7518 24.4443 13.7966 24.4443 15.9182C24.4443 18.0398 23.6504 20.0845 22.2187 21.6502L22.8187 22.2502C24.4109 20.5231 25.2948 18.2602 25.2948 15.9112C25.2948 13.5622 24.4109 11.2992 22.8187 9.57219V9.58619ZM10.2007 9.63819C11.7663 8.20649 13.8111 7.41254 15.9327 7.41254C18.0542 7.41254 20.099 8.20649 21.6647 9.63819L22.2647 9.03819C20.5376 7.44599 18.2747 6.56201 15.9257 6.56201C13.5767 6.56201 11.3137 7.44599 9.58667 9.03819L10.2007 9.63819ZM9.63867 21.6562C8.20867 20.0909 7.41577 18.0474 7.41577 15.9272C7.41577 13.807 8.20867 11.7635 9.63867 10.1982L9.03867 9.59819C7.44647 11.3252 6.5625 13.5882 6.5625 15.9372C6.5625 18.2862 7.44647 20.5491 9.03867 22.2762L9.63867 21.6562ZM21.6567 22.2102C20.091 23.6419 18.0462 24.4358 15.9247 24.4358C13.8031 24.4358 11.7583 23.6419 10.1927 22.2102L9.59267 22.8102C11.3197 24.4024 13.5827 25.2864 15.9317 25.2864C18.2807 25.2864 20.5436 24.4024 22.2707 22.8102L21.6567 22.2102ZM19.7147 13.9242C19.5947 12.6722 18.5147 12.2522 17.1487 12.1242V10.4002H16.0927V12.0922H15.2487V10.4002H14.2007V12.1362H12.0587V13.2662C12.0587 13.2662 12.8387 13.2522 12.8267 13.2662C12.9673 13.2507 13.1085 13.2904 13.2204 13.377C13.3323 13.4636 13.4063 13.5902 13.4267 13.7302V18.4822C13.4237 18.5316 13.4108 18.5798 13.3888 18.6242C13.3668 18.6685 13.3362 18.7079 13.2987 18.7402C13.2619 18.7731 13.2188 18.7982 13.1721 18.814C13.1253 18.8298 13.0759 18.836 13.0267 18.8322C13.0407 18.8442 12.2587 18.8322 12.2587 18.8322L12.0587 20.0942H14.1807V21.8582H15.2367V20.1202H16.0807V21.8502H17.1387V20.1062C18.9227 19.9982 20.1667 19.5582 20.3227 17.8882C20.4487 16.5442 19.8167 15.9442 18.8067 15.7022C19.4207 15.4002 19.8007 14.8402 19.7147 13.9242ZM18.2347 17.6802C18.2347 18.9922 15.9867 18.8422 15.2707 18.8422V16.5142C15.9867 16.5162 18.2347 16.3102 18.2347 17.6802ZM17.7447 14.4002C17.7447 15.6002 15.8687 15.4542 15.2727 15.4542V13.3382C15.8687 13.3382 17.7447 13.1502 17.7447 14.4002Z" fill="white"/>
<path d="M15.924 26.852C9.89 26.851 5 21.959 5 15.925C5 9.892 9.892 5 15.925 5C21.959 5 26.851 9.89 26.852 15.924C26.8523 17.3592 26.5698 18.7803 26.0207 20.1063C25.4716 21.4322 24.6667 22.637 23.6518 23.6518C22.637 24.6667 21.4322 25.4716 20.1063 26.0207C18.7803 26.5698 17.3592 26.8523 15.924 26.852ZM15.924 5.852C10.365 5.856 5.862 10.365 5.864 15.924C5.866 21.483 10.374 25.988 15.932 25.988C21.491 25.988 25.998 21.483 26 15.924C26.0005 14.6008 25.7402 13.2906 25.234 12.0681C24.7278 10.8456 23.9855 9.73486 23.0497 8.79943C22.1139 7.864 21.0029 7.12221 19.7802 6.61647C18.5575 6.11072 17.2472 5.85095 15.924 5.852Z" fill="white"/>
</g>
<defs>
<clipPath id="clip0_1905_3471">
<rect width="32" height="32" fill="white"/>
</clipPath>
</defs>
</svg>
